<svg xmlns="http://www.w3.org/2000/svg" xmlns:xlink="http://www.w3.org/1999/xlink"><defs><symbol viewBox="-221 230 56 41" id="icon--email"><path d="M-167 232c-1.9-1.9-3.3-2-26-2s-24.1.1-26 2c-1.8 1.8-2 3.3-2 18.5s.2 16.7 2 18.5c1.9 1.9 3.3 2 26 2s24.1-.1 26-2c1.8-1.8 2-3.3 2-18.5s-.2-16.7-2-18.5zm-25.9 3c20 0 21.1.1 19.8 1.7-3.4 4.7-18.5 19.3-19.9 19.3-1.5 0-21-18.8-21-20.2 0-.5 9.5-.8 21.1-.8zm-24 6.1l10.5 11.4-9.9 10.3-.6-21.7zM-193 267h-20.4l5.3-5.4 5.4-5.5 2.9 2.2c1.8 1.3 4.4 2.2 6.8 2.2s5-.9 6.8-2.2l2.9-2.2 5.4 5.5 5.3 5.4H-193zm23.7-4.5L-180 252l10.7-10.9v21.4z" /></symbol><symbol viewBox="0 0 24 24" id="icon--github"><path d="M12 0C5.374 0 0 5.373 0 12c0 5.302 3.438 9.8 8.207 11.387.599.111.793-.261.793-.577v-2.234c-3.338.726-4.033-1.416-4.033-1.416-.546-1.387-1.333-1.756-1.333-1.756-1.089-.745.083-.729.083-.729 1.205.084 1.839 1.237 1.839 1.237 1.07 1.834 2.807 1.304 3.492.997.107-.775.418-1.305.762-1.604-2.665-.305-5.467-1.334-5.467-5.931 0-1.311.469-2.381 1.236-3.221-.124-.303-.535-1.524.117-3.176 0 0 1.008-.322 3.301 1.23A11.509 11.509 0 0112 5.803c1.02.005 2.047.138 3.006.404 2.291-1.552 3.297-1.23 3.297-1.23.653 1.653.242 2.874.118 3.176.77.84 1.235 1.911 1.235 3.221 0 4.609-2.807 5.624-5.479 5.921.43.372.823 1.102.823 2.222v3.293c0 .319.192.694.801.576C20.566 21.797 24 17.3 24 12c0-6.627-5.373-12-12-12z" /></symbol><symbol viewBox="0 0 16.4 16.374" id="icon--linkedin"><path d="M3.7 16.4H.3v-11h3.4v11zM2 3.9C.9 3.9 0 3.1 0 2s.9-2 2-2 2 .9 2 2-.9 1.9-2 1.9zm14.4 12.5H13v-5.3c0-1.3 0-2.9-1.8-2.9s-2 1.4-2 2.8v5.4H5.8v-11h3.3v1.5c.4-.9 1.6-1.8 3.2-1.8 3.4 0 4.1 2.3 4.1 5.2v6.1z" /></symbol><symbol viewBox="0 0 19.472 15.829" id="icon--twitter"><path d="M17.5 3.9v.5c0 5.3-4 11.4-11.4 11.4-2.3 0-4.4-.7-6.1-1.8.3 0 .6.1.9.1 1.9 0 3.6-.6 5-1.7-1.8 0-3.2-1.2-3.7-2.8.2 0 .5.1.8.1.4 0 .7-.1 1.1-.1C2.2 9.2.8 7.5.8 5.6v-.1c.5.3 1.1.5 1.8.5C1.5 5.3.8 4.1.8 2.7c0-.7.2-1.4.5-2 2 2.4 5 4 8.3 4.2-.1-.3-.1-.6-.1-.9 0-2.2 1.8-4 4-4 1.2 0 2.2.5 2.9 1.3.9-.2 1.8-.5 2.5-1-.3.9-.9 1.7-1.8 2.2.8-.1 1.6-.3 2.3-.6-.5.8-1.1 1.5-1.9 2z" /></symbol></defs></svg>