<svg xmlns="http://www.w3.org/2000/svg" xmlns:xlink="http://www.w3.org/1999/xlink"><defs><symbol viewBox="0 0 652 652" id="icon--craft"><path d="M322.6 308.5H348l3-16.2h-25.4l4.3-23.7h-.1l-19.3 15.7-1.4 7.9h-20l5.8-31.9c1.4-12 19-8.4 21.6-7.7l2.8-15.4c-31.7-12.7-40.9 23.1-40.9 23.1l-5.8 31.9h-.1l-19.8 16.2h17l-18.7 102h16.5l18.6-101.9h20l-7.3 39.9c-4.6 29 23.3 25.8 32.2 24l2.8-15.2c-21.3 5-18.5-8.8-18.5-8.8l7.3-39.9zm-98.1 40.9c-18.4 19.4-30.2 6.7-30.2 6.7-8-8 .8-16.2.8-16.2 12.2-11.4 30.8 1.1 30.8 1.1l-1.4 8.4zm2.7-20.4s-24.3-12.9-41.3 1.5c0 0-10 6.9-10 20.6 0 13.7 12.2 21.1 12.2 21.1s18.3 10 32.6-6l-1.6 7.4h16l10.1-49.3c7.6-48.7-48.6-31.4-48.6-31.4l-3.1 17.5c41.4-18.6 34.4 13.8 34.4 13.8l-.7 4.8zM186 294.9c-13.5.1-25.7 7.6-25.7 7.6l1.6-7.3h-16.1l-14.7 80h16.5l10-52.7c7.4-14.9 25.6-10.2 25.6-10.2l2.8-17.4zm-64.7-35c.8.6 1.6 1.3 2.3 2l12-9.7.4-.5c-1.9-1.9-3.8-3.7-6-5.4-27.6-21.4-69.2-12.4-93 20-23.8 32.4-20.8 76 6.8 97.4 22.5 17.4 54.4 14.7 78.3-4.6l-11.4-9.2c-17.7 11.7-39.7 12.5-55.6.2-21.2-16.4-23.5-49.9-5.2-74.8 18.2-25 50.2-31.9 71.4-15.4zM431 367.6c-3.6 2.3-7.5 4.1-11.5 5.5-4.2 1.4-8.7 2.1-13.6 2.1-5.8 0-11.1-1-16-3.1-4.7-1.9-9-4.8-12.6-8.5-3.5-3.7-6.3-8-8.3-12.7-2-4.9-3-10.1-3-15.7s1-10.8 2.9-15.7c1.9-4.8 4.7-9.2 8.3-12.9 3.6-3.7 7.9-6.6 12.7-8.7 4.9-2.1 10.2-3.2 16-3.2 4.9 0 9.4.7 13.6 2.1 4.2 1.4 8 3.3 11.6 5.5l-3.2 4.7c-3.1-2-6.5-3.6-10.1-4.9-3.6-1.3-7.5-1.9-11.9-1.9-5 0-9.6.9-13.7 2.7-4 1.7-7.6 4.2-10.6 7.3-3 3.1-5.3 6.8-6.9 10.9-1.6 4.3-2.5 9-2.4 13.6 0 4.8.8 9.4 2.4 13.7 1.5 4.1 3.9 7.9 6.9 11.2 3 3.2 6.6 5.7 10.6 7.5 4.1 1.8 8.7 2.7 13.7 2.7 4.4 0 8.4-.7 11.9-1.9 3.6-1.3 6.9-3 10.1-4.9l3.1 4.6zm119.2 7.6v-53c0-14.4-5.9-21.6-17.7-21.6-5.4 0-10.6 1.7-15.5 4.9-4.9 3.3-9.3 7.7-13.2 13.1v56.6H498v-53c0-14.4-5.9-21.6-17.7-21.6-5.5 0-10.7 1.7-15.4 4.9-4.9 3.4-9.4 7.5-13.3 12.2v57.5H446v-78.8h5.6v14.8c1.7-2 3.6-4 5.8-6 2.2-2 4.5-3.7 6.9-5.2 2.5-1.5 5.1-2.8 8-3.7 2.9-1 6-1.4 9-1.4 5 0 9.5 1.5 13.3 4.4 3.8 2.9 6.4 7.4 7.8 13.5 3.6-4.8 8.1-9 13.5-12.5s11.2-5.3 17.5-5.3c2.9 0 5.8.5 8.6 1.5 2.7 1 5.1 2.6 7.2 4.8 2.1 2.2 3.8 5 5 8.4 1.2 3.4 1.8 7.4 1.8 12.1v53.5h-5.8v-.1zm70.8-21.4c0 2.9-.5 5.6-1.7 8.2-1.1 2.6-2.7 4.9-4.8 6.8-2.2 2-4.7 3.6-7.5 4.7-2.9 1.2-6.2 1.8-9.9 1.8-4.9 0-9.5-.8-13.8-2.5-4.4-1.7-8.5-3.9-12.4-6.6l2.8-4.5c3.5 2.4 7.2 4.5 11.1 6.1 3.8 1.6 7.9 2.4 12.4 2.4 5.5 0 10-1.5 13.3-4.5 3.3-3 5-6.6 5-11 0-3.7-1-6.7-3-8.9s-4.5-4-7.5-5.6c-3-1.6-6.2-3-9.7-4.2-3.4-1.2-6.6-2.7-9.7-4.5-2.9-1.6-5.4-3.9-7.5-6.5-2-2.6-3-6.1-3-10.4 0-2.5.5-4.9 1.6-7.3 1.1-2.4 2.6-4.6 4.5-6.3 2.1-1.9 4.5-3.5 7.2-4.5 2.8-1.1 6.1-1.7 9.8-1.7 4.1 0 7.9.6 11.5 1.9 3.6 1.2 7.2 3.1 10.6 5.6l-2.8 4.7c-3.3-2.5-6.5-4.3-9.5-5.4-3.2-1.1-6.5-1.7-9.9-1.7-5.9 0-10.3 1.5-13.2 4.4-2.9 2.9-4.3 6.2-4.3 9.8 0 3.7 1 6.7 3 8.9s4.5 4 7.5 5.5 6.2 2.9 9.7 4.1c3.4 1.2 6.7 2.7 9.7 4.4 3 1.7 5.5 3.8 7.5 6.4 2 2.5 3 6 3 10.4z" fill="#e5422b" /></symbol><symbol viewBox="91.809 117.07 328.382 369.432" id="icon--css3"><path fill="#1758A7" d="M91.809 117.07l30.784 333.508 133.406 35.923 133.403-35.923 30.789-333.508z" /><path fill="#379AD6" d="M255.997 144.084v313.768l.301.081 107.959-29.07 24.918-284.779z" /><path fill="#E8E8E7" d="M255.623 372.536l-.072.022-44.57-11.361-2.701-32.718h-41.419l5.402 63.165 83.738 24.993V372.43z" /><path fill="#FBFBFA" d="M256.001 266.782v40.128h.119l49.502.055-3.177 52.454-46.325 13.051-.119.034v44.087l.119.036.033.01 83.961-24.523 10.893-125.332z" /><path fill="#E5E4E2" d="M161.002 266.782l3.152 40.086.005.063 91.842.006v-40.155z" /><path fill="#EEE" d="M161.008 266.782h94.76l.233-.101v-40.064z" /><path fill="#FFF" d="M261.553 224.667l-5.552 2.325v39.781l97.954-42.106z" /><path fill="#E7E7E6" d="M152.196 184.515l4.964 40.152h98.841v-40.152z" /><path fill="#F8F8F7" d="M256.001 224.667l101.842-40.152H256.001v40.152zm.027 0h97.76l4.056-40.152-101.816 40.152z" /></symbol><symbol viewBox="-221 230 56 41" id="icon--email"><path d="M-167 232c-1.9-1.9-3.3-2-26-2s-24.1.1-26 2c-1.8 1.8-2 3.3-2 18.5s.2 16.7 2 18.5c1.9 1.9 3.3 2 26 2s24.1-.1 26-2c1.8-1.8 2-3.3 2-18.5s-.2-16.7-2-18.5zm-25.9 3c20 0 21.1.1 19.8 1.7-3.4 4.7-18.5 19.3-19.9 19.3-1.5 0-21-18.8-21-20.2 0-.5 9.5-.8 21.1-.8zm-24 6.1l10.5 11.4-9.9 10.3-.6-21.7zM-193 267h-20.4l5.3-5.4 5.4-5.5 2.9 2.2c1.8 1.3 4.4 2.2 6.8 2.2s5-.9 6.8-2.2l2.9-2.2 5.4 5.5 5.3 5.4H-193zm23.7-4.5L-180 252l10.7-10.9v21.4z" /></symbol><symbol viewBox="0 0 120 60" id="icon--gatsby"><path d="M70.63 27.75h2.8v10h-2.8v-1.3c-1 1.5-2.3 1.6-3.1 1.6-3.1 0-5.1-2.4-5.1-5.3 0-3 2-5.3 4.9-5.3.8 0 2.3.1 3.2 1.6v-1.3zm-5.2 5c0 1.6 1.1 2.8 2.8 2.8a2.73 2.73 0 002.8-2.8c0-1.6-1.1-2.8-2.8-2.8a2.73 2.73 0 00-2.8 2.8zm13.5-2.6v7.6h-2.8v-7.6h-1.1v-2.4h1.1v-3.4h2.8v3.4h1.9v2.4zm8.5 0c-.7-.6-1.3-.7-1.6-.7-.7 0-1.1.3-1.1.8 0 .3.1.6.9.9l.7.2c.8.3 2 .6 2.5 1.4.3.4.5 1 .5 1.7 0 .9-.3 1.8-1.1 2.5s-1.8 1.1-3 1.1c-2.1 0-3.2-1-3.9-1.7l1.5-1.7c.6.6 1.4 1.2 2.2 1.2s1.4-.4 1.4-1.1c0-.6-.5-.9-.9-1l-.6-.2c-.7-.3-1.5-.6-2.1-1.2-.5-.5-.8-1.1-.8-1.9 0-1 .5-1.8 1-2.3.8-.6 1.8-.7 2.6-.7.7 0 1.9.1 3.2 1.1zm6.1-1.1c1-1.4 2.4-1.6 3.2-1.6 2.9 0 4.9 2.3 4.9 5.3s-2 5.3-5 5.3c-.6 0-2.1-.1-3.2-1.6v1.3h-2.7v-16.8h2.8zm-.3 3.7c0 1.6 1.1 2.8 2.8 2.8a2.73 2.73 0 002.8-2.8c0-1.6-1.1-2.8-2.8-2.8s-2.8 1.2-2.8 2.8zm13 3.5l-4.8-8.5h3.3l3.1 5.7 2.8-5.7h3.2l-8 15.3h-3.2zm-44.5-6.8h-7v2.8h3.7c-.6 1.9-2 3.2-4.6 3.2-2.9 0-5-2.4-5-5.3s2-5.4 4.9-5.4c1.6 0 3.2.8 4.2 2.1l2.3-1.5c-1.5-2.1-3.9-3.3-6.5-3.3-4.4 0-8 3.6-8 8.1s3.4 8.1 8 8.1 8-3.6 8-8.1c.1-.3 0-.5 0-.7z" /><path d="M36.752 30H28.19v2.447h5.872c-.856 3.67-3.548 6.728-7.095 7.952L12.897 26.33C14.365 22.048 18.524 19 23.295 19c3.67 0 6.973 1.835 9.053 4.65l1.835-1.6c-2.447-3.303-6.36-5.505-10.888-5.505-6.36 0-11.744 4.526-13.1 10.52l16.148 16.148C32.226 41.744 36.752 36.36 36.752 30zm-26.914.122c0 3.425 1.346 6.728 3.915 9.297s5.994 3.915 9.297 3.915z" fill="#fff" /><path d="M23.295 12.873c-9.42 0-17.127 7.707-17.127 17.127s7.707 17.127 17.127 17.127S40.422 39.42 40.422 30s-7.707-17.127-17.127-17.127zm-9.542 26.67c-2.57-2.57-3.915-5.994-3.915-9.297l13.334 13.212c-3.425-.122-6.85-1.346-9.42-3.915zM26.23 43.1L10.205 27.064c1.346-5.994 6.728-10.52 13.1-10.52 4.526 0 8.44 2.202 10.888 5.505l-1.835 1.6c-2.08-2.814-5.383-4.65-9.053-4.65-4.77 0-8.808 3.058-10.398 7.34l14.068 14.068c3.548-1.223 6.24-4.282 7.095-7.952h-5.88V30h8.563c0 6.36-4.526 11.744-10.52 13.1z" fill="#639" /></symbol><symbol preserveAspectRatio="xMidYMid" viewBox="0 0 256 256" id="icon--git"><path d="M251.172 116.594L139.4 4.828c-6.433-6.437-16.873-6.437-23.314 0l-23.21 23.21 29.443 29.443c6.842-2.312 14.688-.761 20.142 4.693 5.48 5.489 7.02 13.402 4.652 20.266l28.375 28.376c6.865-2.365 14.786-.835 20.269 4.657 7.663 7.66 7.663 20.075 0 27.74-7.665 7.666-20.08 7.666-27.749 0-5.764-5.77-7.188-14.235-4.27-21.336l-26.462-26.462-.003 69.637a19.82 19.82 0 015.188 3.71c7.663 7.66 7.663 20.076 0 27.747-7.665 7.662-20.086 7.662-27.74 0-7.663-7.671-7.663-20.086 0-27.746a19.654 19.654 0 016.421-4.281V94.196a19.378 19.378 0 01-6.421-4.281c-5.806-5.798-7.202-14.317-4.227-21.446L81.47 39.442 4.83 116.077c-6.44 6.443-6.44 16.884 0 23.322l111.774 111.768c6.435 6.438 16.873 6.438 23.316 0l111.251-111.249c6.438-6.44 6.438-16.887 0-23.324" fill="#DE4C36" /></symbol><symbol viewBox="0 0 24 24" id="icon--github"><path d="M12 0C5.374 0 0 5.373 0 12c0 5.302 3.438 9.8 8.207 11.387.599.111.793-.261.793-.577v-2.234c-3.338.726-4.033-1.416-4.033-1.416-.546-1.387-1.333-1.756-1.333-1.756-1.089-.745.083-.729.083-.729 1.205.084 1.839 1.237 1.839 1.237 1.07 1.834 2.807 1.304 3.492.997.107-.775.418-1.305.762-1.604-2.665-.305-5.467-1.334-5.467-5.931 0-1.311.469-2.381 1.236-3.221-.124-.303-.535-1.524.117-3.176 0 0 1.008-.322 3.301 1.23A11.509 11.509 0 0112 5.803c1.02.005 2.047.138 3.006.404 2.291-1.552 3.297-1.23 3.297-1.23.653 1.653.242 2.874.118 3.176.77.84 1.235 1.911 1.235 3.221 0 4.609-2.807 5.624-5.479 5.921.43.372.823 1.102.823 2.222v3.293c0 .319.192.694.801.576C20.566 21.797 24 17.3 24 12c0-6.627-5.373-12-12-12z" /></symbol><symbol viewBox="0 0 500 500" id="icon--html-tag"><path fill="#fff" d="M81.9 240.9l59.9-59.1c14.6-14.4 15.6-37 2.2-50.2-13.4-13.2-36.2-12.2-50.8 2.1l-81.7 80.4c-2.4 2.2-4.2 4.9-5.9 7.5-3.5 5-5.4 10.7-5.6 16.7v2.5c0 .7 0 1.5.1 2.4.4 6 2.1 11.9 5.6 16.9 1.6 2.6 3.5 5.1 5.9 7.5L93.3 348c14.6 14.4 37.5 15.4 50.8 2.1 13.4-13.2 12.4-35.7-2.4-50.2l-59.8-59zm418-2.4c-.4-6-2.1-11.9-5.6-16.7-1.6-2.6-3.5-5.1-5.9-7.5l-81.7-80.4c-14.6-14.4-37.5-15.4-50.8-2.1-13.4 13.2-12.4 35.7 2.2 50.2l59.9 59.1-59.9 59.1c-14.6 14.4-15.6 37-2.4 50.2 13.4 13.2 36.2 12.2 50.8-2.1l81.7-80.4c2.4-2.2 4.1-4.9 5.9-7.5 3.5-5 5.4-10.7 5.6-16.9 0-.7.1-1.6.1-2.4.2-1 .1-1.7.1-2.6zM287.6 96.3c-18.5-3.4-37.1 10.2-41.5 30.2L194.9 361c-4.4 20.1 7.1 39.2 25.6 42.7s37.1-10.1 41.5-30.2L313.2 139c4.4-20.1-7.1-39.2-25.6-42.7z" /></symbol><symbol viewBox="93.063 116.909 325.875 369.576" id="icon--html5"><path fill="#E44D26" d="M93.063 116.909l29.656 332.632L255.8 486.486l133.449-36.997 29.689-332.58z" /><path fill="#EBEBEB" d="M256 184.903H153.702l.977 10.945 10.027 112.422H256v-40.795h-53.984l-3.729-41.774H256v-40.798zm-45.614 176.302l-2.905-32.535h-40.953l5.716 64.056 83.568 23.198.188-.053v-42.444l-.179.048-45.435-12.27z" /><path fill="#F16529" d="M256 144.106v314.101l107.832-29.894 25.371-284.207z" /><path fill="#FFF" d="M255.858 308.271h50.236l-4.736 52.91-45.5 12.281v42.441l83.634-23.179.613-6.893 9.588-107.402.994-10.955h-94.83v40.797h.001zm0-123.368V225.7H354.4l.817-9.171 1.859-20.682.975-10.945H255.858v.001z" /></symbol><symbol viewBox="0 0 24 24" id="icon--instagram"><path d="M12 2.163c3.204 0 3.584.012 4.85.07 3.252.148 4.771 1.691 4.919 4.919.058 1.265.069 1.645.069 4.849 0 3.205-.012 3.584-.069 4.849-.149 3.225-1.664 4.771-4.919 4.919-1.266.058-1.644.07-4.85.07-3.204 0-3.584-.012-4.849-.07-3.26-.149-4.771-1.699-4.919-4.92-.058-1.265-.07-1.644-.07-4.849 0-3.204.013-3.583.07-4.849.149-3.227 1.664-4.771 4.919-4.919 1.266-.057 1.645-.069 4.849-.069zM12 0C8.741 0 8.333.014 7.053.072 2.695.272.273 2.69.073 7.052.014 8.333 0 8.741 0 12c0 3.259.014 3.668.072 4.948.2 4.358 2.618 6.78 6.98 6.98C8.333 23.986 8.741 24 12 24c3.259 0 3.668-.014 4.948-.072 4.354-.2 6.782-2.618 6.979-6.98.059-1.28.073-1.689.073-4.948 0-3.259-.014-3.667-.072-4.947-.196-4.354-2.617-6.78-6.979-6.98C15.668.014 15.259 0 12 0zm0 5.838a6.162 6.162 0 100 12.324 6.162 6.162 0 000-12.324zM12 16a4 4 0 110-8 4 4 0 010 8zm6.406-11.845a1.44 1.44 0 100 2.881 1.44 1.44 0 000-2.881z" /></symbol><symbol viewBox="0 0 630 630" id="icon--js"><path fill="#f7df1e" d="M0 0h630v630H0z" /><path d="M423.2 492.19c12.69 20.72 29.2 35.95 58.4 35.95 24.53 0 40.2-12.26 40.2-29.2 0-20.3-16.1-27.49-43.1-39.3l-14.8-6.35c-42.72-18.2-71.1-41-71.1-89.2 0-44.4 33.83-78.2 86.7-78.2 37.64 0 64.7 13.1 84.2 47.4l-46.1 29.6c-10.15-18.2-21.1-25.37-38.1-25.37-17.34 0-28.33 11-28.33 25.37 0 17.76 11 24.95 36.4 35.95l14.8 6.34c50.3 21.57 78.7 43.56 78.7 93 0 53.3-41.87 82.5-98.1 82.5-54.98 0-90.5-26.2-107.88-60.54zm-209.13 5.13c9.3 16.5 17.76 30.45 38.1 30.45 19.45 0 31.72-7.61 31.72-37.2v-201.3h59.2v202.1c0 61.3-35.94 89.2-88.4 89.2-47.4 0-74.85-24.53-88.81-54.075z" /></symbol><symbol viewBox="0 0 16.4 16.374" id="icon--linkedin"><path d="M3.7 16.4H.3v-11h3.4v11zM2 3.9C.9 3.9 0 3.1 0 2s.9-2 2-2 2 .9 2 2-.9 1.9-2 1.9zm14.4 12.5H13v-5.3c0-1.3 0-2.9-1.8-2.9s-2 1.4-2 2.8v5.4H5.8v-11h3.3v1.5c.4-.9 1.6-1.8 3.2-1.8 3.4 0 4.1 2.3 4.1 5.2v6.1z" /></symbol><symbol viewBox="0 0 40 40" id="icon--logomark"><defs></defs><path fill="url(#icon--logomark_a)" d="M28.589 14.135l-.014-.006c-.008-.003-.016-.006-.023-.013a.11.11 0 01-.028-.093l.773-4.726 3.625 3.626-3.77 1.604a.083.083 0 01-.033.006h-.015a.104.104 0 01-.02-.017 1.716 1.716 0 00-.495-.381zm5.258-.288l3.876 3.876c.805.806 1.208 1.208 1.355 1.674.022.069.04.138.054.209l-9.263-3.923a.728.728 0 00-.015-.006c-.037-.015-.08-.032-.08-.07 0-.038.044-.056.081-.071l.012-.005 3.98-1.684zm5.127 7.003c-.2.376-.59.766-1.25 1.427l-4.37 4.369-5.652-1.177-.03-.006c-.05-.008-.103-.017-.103-.062a1.706 1.706 0 00-.655-1.193c-.023-.023-.017-.059-.01-.092 0-.005 0-.01.002-.014l1.063-6.526.004-.022c.006-.05.015-.108.06-.108a1.73 1.73 0 001.16-.665c.009-.01.015-.021.027-.027.032-.015.07 0 .103.014l9.65 4.082zm-6.625 6.801l-7.186 7.186 1.23-7.56.002-.01a.136.136 0 01.006-.029c.01-.024.036-.034.061-.044l.012-.005a1.85 1.85 0 00.695-.517c.024-.028.053-.055.09-.06a.09.09 0 01.029 0l5.06 1.04zm-8.707 8.707l-.81.81-8.955-12.942a.424.424 0 00-.01-.014c-.014-.019-.029-.038-.026-.06.001-.016.011-.03.022-.042l.01-.013c.027-.04.05-.08.075-.123l.02-.035.003-.003c.014-.024.027-.047.051-.06.021-.01.05-.006.073-.001l9.921 2.046a.164.164 0 01.076.033c.013.013.016.027.019.043a1.757 1.757 0 001.028 1.175c.028.014.016.045.003.078a.238.238 0 00-.015.045c-.125.76-1.197 7.298-1.485 9.063zm-1.692 1.691c-.597.591-.949.904-1.347 1.03a2 2 0 01-1.206 0c-.466-.148-.869-.55-1.674-1.356L8.73 28.73l2.349-3.643a.15.15 0 01.04-.047c.025-.018.061-.01.091 0a2.434 2.434 0 001.638-.083c.027-.01.054-.017.075.002a.19.19 0 01.028.032L21.95 38.05zM7.863 27.863L5.8 25.8l4.074-1.738a.084.084 0 01.033-.007c.034 0 .054.034.072.065a2.91 2.91 0 00.13.184l.013.016c.012.017.004.034-.008.05l-2.25 3.493zm-2.976-2.976l-2.61-2.61c-.444-.444-.766-.766-.99-1.043l7.936 1.646a.84.84 0 00.03.005c.049.008.103.017.103.063 0 .05-.059.073-.109.092l-.023.01-4.337 1.837zM.831 19.892a2 2 0 01.09-.495c.148-.466.55-.868 1.356-1.674l3.34-3.34a2175.525 2175.525 0 004.626 6.687c.027.036.057.076.026.106a2.776 2.776 0 00-.395.528.16.16 0 01-.05.062c-.013.008-.027.005-.042.002H9.78L.831 19.891zm5.68-6.403l4.491-4.491c.422.185 1.958.834 3.332 1.414 1.04.44 1.988.84 2.286.97.03.012.057.024.07.054.008.018.004.041 0 .06a2.003 2.003 0 00.523 1.828c.03.03 0 .073-.026.11l-.014.021-4.56 7.063a.138.138 0 01-.043.05c-.024.015-.058.008-.086.001a2.274 2.274 0 00-.543-.074c-.164 0-.342.03-.522.063h-.001c-.02.003-.038.007-.054-.005a.21.21 0 01-.045-.051l-4.808-7.013zm5.398-5.398l5.814-5.814c.805-.805 1.208-1.208 1.674-1.355a2 2 0 011.206 0c.466.147.869.55 1.674 1.355l1.26 1.26-4.135 6.404a.155.155 0 01-.041.048c-.025.017-.06.01-.09 0a2.097 2.097 0 00-1.92.37c-.027.028-.067.012-.101-.003-.54-.235-4.74-2.01-5.341-2.265zm12.506-3.676l3.818 3.818-.92 5.698v.015a.135.135 0 01-.008.038c-.01.02-.03.024-.05.03a1.83 1.83 0 00-.548.273.154.154 0 00-.02.017c-.011.012-.022.023-.04.025a.114.114 0 01-.043-.007l-5.818-2.472-.011-.005c-.037-.015-.081-.033-.081-.071a2.198 2.198 0 00-.31-.915c-.028-.046-.059-.094-.035-.141l4.066-6.303zm-3.932 8.606l5.454 2.31c.03.014.063.027.076.058a.106.106 0 010 .057c-.016.08-.03.171-.03.263v.153c0 .038-.039.054-.075.069l-.011.004c-.864.369-12.13 5.173-12.147 5.173-.017 0-.035 0-.052-.017-.03-.03 0-.072.027-.11a.76.76 0 00.014-.02l4.482-6.94.008-.012c.026-.042.056-.089.104-.089l.045.007c.102.014.192.027.283.027.68 0 1.31-.331 1.69-.897a.16.16 0 01.034-.04c.027-.02.067-.01.098.004zm-6.246 9.185l12.28-5.237s.018 0 .035.017c.067.067.124.112.179.154l.027.017c.025.014.05.03.052.056 0 .01 0 .016-.002.025L25.756 23.7l-.004.026c-.007.05-.014.107-.061.107a1.729 1.729 0 00-1.373.847l-.005.008c-.014.023-.027.045-.05.057-.021.01-.048.006-.07.001l-9.793-2.02c-.01-.002-.152-.519-.163-.52z" /></symbol><radialGradient id="icon--logomark_a" cy="0%" r="100.11%" fx="50%" fy="0%" gradientTransform="matrix(0 .9989 -1.152 0 .5 -.5)"><stop offset="0%" stop-color="#20C6B7" /><stop offset="100%" stop-color="#4D9ABF" /></radialGradient><symbol viewBox="-18.458 6.58 191.151 132.49" id="icon--mysql"><path d="M-18.458 6.58h191.151v132.49H-18.458V6.58z" fill="none" /><path d="M40.054 113.583h-5.175c-.183-8.735-.687-16.947-1.511-24.642h-.046l-7.879 24.642h-3.94l-7.832-24.642h-.045c-.581 7.388-.947 15.602-1.099 24.642H7.81c.304-10.993 1.068-21.299 2.289-30.919h6.414l7.465 22.719h.046l7.511-22.719h6.137c1.344 11.268 2.138 21.575 2.382 30.919m22.443-22.812c-2.107 11.434-4.887 19.742-8.337 24.928-2.688 3.992-5.633 5.99-8.84 5.99-.855 0-1.91-.258-3.16-.77v-2.757c.611.088 1.328.138 2.152.138 1.498 0 2.702-.412 3.62-1.238 1.098-1.006 1.647-2.137 1.647-3.388 0-.858-.428-2.612-1.282-5.268L42.618 90.77h5.084l4.076 13.19c.916 2.995 1.298 5.086 1.145 6.277 2.229-5.953 3.786-12.444 4.673-19.468h4.901v.002z" fill="#5d87a1" /><path d="M131.382 113.583h-14.7V82.664h4.945v27.113h9.755v3.806zm-18.548.747l-5.684-2.805c.504-.414.986-.862 1.42-1.381 2.416-2.838 3.621-7.035 3.621-12.594 0-10.229-4.014-15.346-12.045-15.346-3.938 0-7.01 1.298-9.207 3.895-2.414 2.84-3.619 7.022-3.619 12.551 0 5.435 1.068 9.422 3.205 11.951 1.955 2.291 4.902 3.438 8.843 3.438 1.47 0 2.819-.18 4.048-.543l7.4 4.308 2.018-3.474zm-18.413-6.934c-1.252-2.014-1.878-5.248-1.878-9.707 0-7.785 2.365-11.682 7.1-11.682 2.475 0 4.289.932 5.449 2.792 1.25 2.017 1.879 5.222 1.879 9.619 0 7.849-2.367 11.774-7.099 11.774-2.476.001-4.29-.928-5.451-2.796m-9.256-2.383c0 2.622-.962 4.773-2.884 6.458-1.924 1.678-4.504 2.519-7.737 2.519-3.024 0-5.956-.966-8.794-2.888l1.329-2.655c2.442 1.223 4.653 1.831 6.638 1.831 1.863 0 3.319-.413 4.375-1.232 1.055-.822 1.684-1.975 1.684-3.433 0-1.837-1.281-3.407-3.631-4.722-2.167-1.19-6.501-3.678-6.501-3.678-2.349-1.712-3.525-3.55-3.525-6.578 0-2.506.877-4.529 2.632-6.068 1.757-1.545 4.024-2.315 6.803-2.315 2.87 0 5.479.769 7.829 2.291l-1.192 2.656c-2.01-.854-3.994-1.281-5.951-1.281-1.585 0-2.809.381-3.66 1.146-.858.762-1.387 1.737-1.387 2.933 0 1.828 1.308 3.418 3.722 4.759 2.196 1.192 6.638 3.723 6.638 3.723 2.409 1.709 3.612 3.53 3.612 6.534" fill="#f8981d" /><path d="M137.59 72.308c-2.99-.076-5.305.225-7.248 1.047-.561.224-1.453.224-1.531.933.303.3.338.784.601 1.198.448.747 1.229 1.752 1.942 2.276.783.6 1.569 1.194 2.393 1.717 1.453.899 3.1 1.422 4.516 2.318.825.521 1.645 1.195 2.471 1.756.406.299.666.784 1.193.971v-.114c-.264-.336-.339-.822-.598-1.196l-1.122-1.082c-1.084-1.456-2.431-2.727-3.884-3.771-1.196-.824-3.812-1.944-4.297-3.322l-.076-.076c.822-.077 1.797-.375 2.578-.604 1.271-.335 2.43-.259 3.734-.594.6-.15 1.195-.338 1.797-.523v-.337c-.676-.673-1.158-1.567-1.869-2.203-1.902-1.643-3.998-3.25-6.164-4.595-1.16-.749-2.652-1.231-3.887-1.868-.445-.225-1.195-.336-1.457-.71-.67-.822-1.047-1.904-1.533-2.877-1.08-2.053-2.129-4.331-3.061-6.502-.674-1.456-1.084-2.91-1.906-4.257-3.85-6.35-8.031-10.196-14.457-13.971-1.381-.786-3.024-1.121-4.779-1.533l-2.803-.148c-.598-.262-1.197-.973-1.719-1.309-2.132-1.344-7.621-4.257-9.189-.411-1.01 2.431 1.494 4.821 2.354 6.054.635.856 1.458 1.83 1.902 2.802.263.635.337 1.309.6 1.98.598 1.644 1.157 3.473 1.943 5.007.41.782.857 1.604 1.381 2.312.3.414.822.597.936 1.272-.521.744-.562 1.867-.861 2.801-1.344 4.221-.819 9.45 1.086 12.552.596.934 2.018 2.99 3.92 2.202 1.684-.672 1.311-2.801 1.795-4.668.111-.451.038-.747.262-1.043v.073c.521 1.045 1.047 2.052 1.53 3.1 1.159 1.829 3.177 3.735 4.858 5.002.895.676 1.604 1.832 2.725 2.245V74.1h-.074c-.227-.335-.559-.485-.857-.745-.674-.673-1.42-1.495-1.943-2.241-1.566-2.093-2.952-4.41-4.182-6.801-.602-1.16-1.121-2.428-1.606-3.586-.226-.447-.226-1.121-.601-1.346-.562.821-1.381 1.532-1.791 2.538-.711 1.609-.785 3.588-1.049 5.646l-.147.072c-1.19-.299-1.604-1.53-2.056-2.575-1.119-2.654-1.307-6.914-.336-9.976.26-.783 1.385-3.249.936-3.995-.225-.715-.973-1.122-1.383-1.685-.482-.708-1.01-1.604-1.346-2.39-.896-2.091-1.347-4.408-2.312-6.498-.451-.974-1.234-1.982-1.868-2.879-.712-1.008-1.495-1.718-2.058-2.913-.186-.411-.447-1.083-.148-1.53.073-.3.225-.412.523-.487.484-.409 1.867.111 2.352.336 1.385.56 2.543 1.083 3.699 1.867.523.375 1.084 1.085 1.755 1.272h.786c1.193.26 2.538.072 3.661.41 1.979.636 3.772 1.569 5.38 2.576 4.893 3.103 8.928 7.512 11.652 12.778.447.858.637 1.644 1.045 2.539.787 1.832 1.76 3.7 2.541 5.493.785 1.755 1.533 3.547 2.654 5.005.559.784 2.805 1.195 3.812 1.606.745.335 1.905.633 2.577 1.044 1.271.783 2.537 1.682 3.732 2.543.595.448 2.465 1.382 2.576 2.13M99.484 39.844a5.82 5.82 0 00-1.529.188v.075h.072c.301.597.824 1.011 1.197 1.532.301.599.562 1.193.857 1.791l.072-.074c.527-.373.789-.971.789-1.868-.227-.264-.262-.522-.451-.784-.22-.374-.705-.56-1.007-.86" fill="#5d87a1" /><path d="M141.148 113.578h.774v-3.788h-1.161l-.947 2.585-1.029-2.585h-1.118v3.788h.731v-2.882h.041l1.078 2.882h.557l1.074-2.882v2.882zm-6.235 0h.819v-3.146h1.072v-.643h-3.008v.643h1.115l.002 3.146z" fill="#f8981d" /></symbol><symbol viewBox="0 0 182 47" id="icon--netlify"><g fill="none"><path fill="#C9FA4B" d="M10.744 26.727c0 .02-.02.04-.059.079L5.322 29.09h-.02s-.02 0-.04-.02L.946 24.775c-.02-.02-.04-.06-.02-.078.02-.02.04-.04.06-.04h.019l9.681 2.012c.04 0 .06.02.06.058zm.513-1.347c-.02 0-.02 0 0 0L.097 23.037c-.04 0-.059-.02-.059-.04 0-.018 0-.038.02-.057l6.23-6.17c0-.02.02-.02.04-.02.039.02.039.02.06.039 0 .02 5.342 7.752 5.402 7.83.02.02.02.059 0 .078a2.96 2.96 0 00-.473.644c-.02.019-.04.04-.06.04zm2.327-15.717c-.02-.02-.04-.02-.02-.059 0-.02 0-.038.02-.059L22.97.213c0-.02.02-.02.04-.02s.02 0 .04.02l4.041 4.003c.02.019.02.058 0 .078l-4.87 7.556c-.02.019-.04.039-.06.039h-.019a2.398 2.398 0 00-2.248.41c-.02.02-.02.02-.039.02h-.02c-.256-.118-6.25-2.656-6.25-2.656zm-.572 14.291l-5.6-8.18c-.02-.019-.02-.058 0-.078l5.028-4.998c0-.02.02-.02.04-.02h.02c0 .02 5.934 2.519 6.605 2.812.019.02.04.038.04.078a2.298 2.298 0 00.592 2.128c.018.02.018.06-.001.078l-5.284 8.2c-.02.02-.04.04-.06.04h-.02a2.64 2.64 0 00-.67-.098c-.198 0-.414.038-.611.078h-.02c-.02 0-.039-.02-.06-.04zm1.834 5.096l10.45 15.19a.06.06 0 010 .079l-2.287 2.284c0 .02-.02.02-.04.02 0 0-.02 0-.04-.02L9.878 33.658c-.02-.019-.02-.058 0-.078l.02-.02 2.84-4.412c.019-.019.039-.039.058-.039h.02c.295.098.572.137.867.137.375 0 .73-.079 1.085-.234h.02c.02 0 .04.02.059.038zm-3.234-.76c.02.018.02.038.02.038L8.93 32.525c-.02.02-.04.04-.058.04 0 0-.02 0-.04-.02l-2.386-2.362c-.02-.02-.02-.04-.02-.058 0-.02.02-.04.04-.04l4.89-2.089h.02c.019 0 .039.02.058.039.06.098.119.176.178.255zm4.752-1.895c0-.156-.04-.293-.06-.449 0-.04 0-.059.04-.077l14.02-5.995h.02s.019 0 .039.02c.098.097.177.156.256.214.04 0 .04.04.04.06l-1.223 7.515c0 .04-.02.06-.06.06-.67.038-1.262.43-1.596 1.015-.02.019-.04.04-.06.04h-.02l-11.337-2.344c-.04 0-.06-.02-.06-.059zm12.442 5.175c.04.018.04.058 0 .058L27.03 42.56c0 .02-.02.02-.02.04l-.631.624c0 .02-.02.02-.039.02-.02 0-.02 0-.04-.02L15.89 28.152c-.02-.02-.02-.06 0-.078.06-.079.098-.157.158-.254.019-.02.039-.04.058-.04h.02l11.436 2.363c.04.02.06.04.06.058a2.016 2.016 0 001.183 1.368zm8.616.625c.02 0 .04.018.04.077 0 .02 0 .04-.02.058l-8.557 8.494c0 .02-.02.02-.04.02h-.04c-.02-.02-.039-.04-.039-.079l1.48-9.098c0-.02.019-.059.038-.059a2.12 2.12 0 00.888-.664c.019 0 .04-.019.06-.019h.019l6.171 1.27zm-7.65-14.175c.02.019.04.038.04.077-.02.098-.04.215-.04.332v.176c0 .02-.02.039-.04.058l-13.94 5.955h-.02c-.02 0-.04 0-.059-.018a.06.06 0 010-.08l5.226-8.102c.019-.02.039-.039.058-.039h.02c.138.02.257.039.375.039a2.32 2.32 0 001.952-1.054c.02-.02.04-.039.059-.039h.02l6.348 2.695zm15.38 6.52c.019.02.019.04.019.06 0 .018 0 .038-.02.058l-6.428 6.384c0 .02-.019.02-.04.02h-.018l-7.02-1.465c-.04 0-.06-.02-.06-.058a1.96 1.96 0 00-.749-1.367c-.02-.02-.02-.04-.02-.059l1.243-7.634c0-.038.04-.059.059-.059a1.976 1.976 0 001.341-.78c.02-.02.04-.02.06-.02h.019l11.614 4.92zm1.202-1.171c.04.02.04.078 0 .078l-.04.039c0 .02-.02.02-.039.02h-.02L34.15 18.37c-.02 0-.04-.038-.04-.058 0-.019.02-.04.04-.058l4.91-2.09h.02s.02 0 .039.02l7.236 7.185zm-23.03-10.563c-.02-.02-.02-.058 0-.098l4.752-7.38c0-.019.02-.038.04-.038s.02 0 .039.02l4.22 4.197c.02.02.02.038.02.059l-1.105 6.852c0 .04-.02.059-.04.059a2.084 2.084 0 00-.69.351c0 .02-.019.02-.039.02h-.02l-6.743-2.87c-.02-.02-.04-.039-.04-.06a2.516 2.516 0 00-.394-1.112zm9.405 3.807c-.02 0-.04-.039-.059-.058l.927-5.681c0-.04.02-.06.04-.06h.02s.018 0 .039.02l4.239 4.198c.02.02.02.04.02.059 0 .019-.02.038-.04.058l-4.535 1.933h-.02c-.02 0-.02 0-.04-.02a1.963 1.963 0 00-.591-.449z" /><path fill="#1E1F21" d="M102.392 14.368h3.154v-2.81h-3.154v2.81zm9.345-1.503c-.867.859-1.301 2.089-1.301 3.69v1.309h-2.15v2.381h2.15v11.95h3.155v-11.95h2.859v-2.381h-2.859v-1.27c0-1.581.749-2.363 2.267-2.363.454 0 .867.04 1.203.099l.08-2.52a7.316 7.316 0 00-1.776-.234c-1.538-.019-2.76.43-3.628 1.29zm11.712 14.721l-2.977-9.722h-3.411l4.95 14.252-.454 1.23c-.237.703-.553 1.191-.966 1.484-.394.293-1.006.449-1.795.449l-.591-.039v2.499a5.646 5.646 0 001.518.234c2.05 0 3.51-1.21 4.378-3.612l5.599-16.497h-3.372l-2.879 9.722zm-21.057 4.608h3.154v-14.33h-3.154v14.33zm-13.566-2.772c-.217-.235-.316-.645-.316-1.191v-8.005h2.484v-2.383H88.51v-3.475h-3.154v3.475h-2.308v2.383h2.308v8.122c0 2.733 1.222 4.1 3.647 4.1.671 0 1.36-.098 2.09-.313v-2.499c-.375.098-.75.137-1.104.137-.571.02-.947-.098-1.163-.351zm-10.253-5.74h-6.015c.139-1.114.494-1.972 1.026-2.578.532-.624 1.243-.917 2.11-.917.867 0 1.558.273 2.05.82.493.546.77 1.366.848 2.44v.234h-.02zm-2.879-6.092a5.973 5.973 0 00-3.274.937c-.986.625-1.734 1.504-2.287 2.636-.532 1.132-.808 2.401-.808 3.826v.39c0 2.129.631 3.848 1.873 5.136 1.243 1.288 2.86 1.933 4.87 1.933 1.163 0 2.228-.234 3.175-.703a5.527 5.527 0 002.247-1.991l-1.695-1.66c-.907 1.19-2.09 1.796-3.53 1.796-1.025 0-1.892-.351-2.562-1.034-.69-.683-1.065-1.62-1.164-2.812h9.188v-1.288c0-2.285-.532-4.042-1.557-5.292-1.085-1.25-2.564-1.874-4.476-1.874zm-13.625 0c-1.695 0-3.056.645-4.101 1.913l-.1-1.66h-2.956v14.332h3.154V21.983c.632-1.172 1.578-1.757 2.84-1.757.867 0 1.498.214 1.892.663.395.43.572 1.113.572 2.012v9.274h3.155v-9.47c-.04-3.397-1.518-5.115-4.456-5.115zm32.277 14.604h3.156V11.85h-3.156v20.344z" /><path d="M139.256 29.651c.803 0 1.469-.233 1.998-.701.53-.468.812-1.046.847-1.734h3.031a4.724 4.724 0 01-.834 2.495c-.52.772-1.226 1.383-2.117 1.833a6.31 6.31 0 01-2.886.675c-2.003 0-3.59-.648-4.764-1.946-1.174-1.297-1.76-3.088-1.76-5.373v-.331c0-2.18.582-3.924 1.746-5.235 1.165-1.31 2.753-1.965 4.765-1.965 1.703 0 3.09.496 4.163 1.489 1.072.992 1.634 2.296 1.687 3.91h-3.03c-.036-.82-.316-1.495-.841-2.024-.525-.53-1.194-.794-2.005-.794-1.042 0-1.845.377-2.41 1.131-.564.755-.85 1.9-.86 3.435v.516c0 1.553.28 2.711.84 3.475.561.763 1.37 1.144 2.43 1.144zm11.105-12.017l.093 1.495c1.005-1.173 2.382-1.76 4.13-1.76 1.914 0 3.224.732 3.93 2.197 1.041-1.465 2.506-2.197 4.394-2.197 1.58 0 2.755.437 3.527 1.31.773.874 1.167 2.162 1.185 3.865v9.41h-3.216v-9.317c0-.91-.199-1.575-.596-1.999-.397-.424-1.054-.635-1.972-.635-.732 0-1.33.196-1.793.589-.464.392-.788.906-.973 1.542l.013 9.82h-3.216v-9.423c-.044-1.686-.905-2.528-2.581-2.528-1.288 0-2.202.525-2.74 1.575v10.376h-3.216v-14.32h3.03zm28.364 10.43c0-.574-.236-1.011-.708-1.311-.472-.3-1.255-.565-2.349-.794-1.094-.23-2.007-.52-2.74-.874-1.606-.776-2.409-1.901-2.409-3.375 0-1.235.52-2.268 1.562-3.097 1.041-.83 2.365-1.244 3.97-1.244 1.713 0 3.096.423 4.15 1.27 1.055.847 1.582 1.946 1.582 3.296h-3.216c0-.618-.23-1.132-.689-1.542-.459-.41-1.067-.615-1.826-.615-.706 0-1.282.163-1.727.49a1.542 1.542 0 00-.669 1.31c0 .494.208.878.622 1.151.415.274 1.253.55 2.515.827 1.262.278 2.252.61 2.971.993.72.384 1.253.845 1.602 1.383.348.538.523 1.191.523 1.96 0 1.287-.534 2.33-1.602 3.13-1.068.798-2.466 1.197-4.196 1.197-1.173 0-2.219-.212-3.136-.635-.918-.424-1.633-1.006-2.144-1.747-.512-.742-.768-1.54-.768-2.396h3.123c.045.759.331 1.343.86 1.754.53.41 1.232.615 2.105.615.847 0 1.491-.16 1.933-.483.44-.322.661-.743.661-1.264z" fill="#C9FA4B" /></g></symbol><symbol viewBox="0 0 711.201 383.598" id="icon--php"><defs></defs><g clip-path="url(#icon--php_a)" transform="matrix(1.25 0 0 -1.25 -4.4 394.299)"><path d="M11.52 162C11.52 81.677 135.307 16.561 288 16.561S564.481 81.677 564.481 162c0 80.322-123.788 145.439-276.481 145.439-152.693 0-276.48-65.117-276.48-145.439" fill="url(#icon--php_b)" /></g><g clip-path="url(#icon--php_c)" transform="matrix(1.25 0 0 -1.25 -4.4 394.299)"><path d="M288 27.36c146.729 0 265.68 60.28 265.68 134.64 0 74.36-118.951 134.641-265.68 134.641S22.32 236.36 22.32 162.001C22.32 87.64 141.271 27.358 288 27.358" fill="#777bb3" /></g><g clip-path="url(#icon--php_d)" transform="matrix(1.25 0 0 -1.25 -4.4 394.299)"><path d="M161.734 145.307c12.065 0 21.072 2.225 26.771 6.61 5.638 4.342 9.532 11.863 11.573 22.354 1.903 9.806 1.178 16.653-2.154 20.348-3.407 3.774-10.773 5.688-21.893 5.688h-19.28l-10.69-55h15.673zm-63.063-67.75a2.998 2.998 0 00-2.944 3.572l28.328 145.75a3 3 0 002.945 2.428h61.054c19.188 0 33.47-5.21 42.447-15.487 9.025-10.331 11.812-24.772 8.283-42.921-1.436-7.394-3.906-14.261-7.34-20.41-3.44-6.154-7.985-11.85-13.512-16.93-6.616-6.191-14.104-10.681-22.236-13.323-8.003-2.607-18.28-3.93-30.548-3.93h-24.722l-7.06-36.321a3 3 0 00-2.944-2.428h-31.75z" /><path d="M159.224 197.307h16.808c13.42 0 18.083-2.945 19.667-4.7 2.628-2.914 3.124-9.058 1.435-17.767-1.898-9.75-5.416-16.663-10.458-20.545-5.162-3.974-13.554-5.988-24.941-5.988H149.7l9.523 49zm28.83 35H127a6 6 0 01-5.89-4.855L92.784 81.702a6 6 0 015.889-7.144h31.75a6 6 0 015.89 4.854l6.588 33.895h22.249c12.582 0 23.174 1.372 31.479 4.077 8.54 2.775 16.399 7.48 23.354 13.984 5.752 5.292 10.49 11.232 14.08 17.657 3.59 6.427 6.17 13.594 7.668 21.302 3.715 19.104.697 34.402-8.97 45.466-9.571 10.958-24.613 16.514-44.705 16.514m-45.633-90h19.313c12.8 0 22.336 2.411 28.6 7.234 6.267 4.824 10.493 12.875 12.689 24.157 2.1 10.832 1.144 18.476-2.871 22.93-4.02 4.452-12.06 6.68-24.121 6.68h-21.754l-11.856-61m45.633 84c18.367 0 31.766-4.82 40.188-14.462 8.42-9.64 10.957-23.098 7.597-40.375-1.383-7.117-3.722-13.624-7.015-19.519-3.297-5.899-7.602-11.293-12.922-16.184-6.34-5.933-13.383-10.16-21.133-12.679-7.75-2.525-17.621-3.782-29.621-3.782h-27.196l-7.531-38.75h-31.75L127 226.307h61.055" fill="#fff" /><path d="M311.583 116.307c-.896 0-1.745.4-2.314 1.092a2.994 2.994 0 00-.631 2.48l12.531 64.489c1.192 6.133.898 10.535-.827 12.395-1.056 1.137-4.228 3.044-13.607 3.044h-22.702l-15.755-81.072a3 3 0 00-2.945-2.428h-31.5a2.998 2.998 0 00-2.945 3.572l28.328 145.75a3 3 0 002.945 2.428h31.5a3 3 0 002.945-3.572l-6.836-35.178h24.422c18.605 0 31.221-3.28 38.569-10.028 7.49-6.884 9.827-17.891 6.947-32.72l-13.18-67.824a3 3 0 00-2.945-2.428h-32z" /><path d="M293.661 271.057h-31.5a6 6 0 01-5.89-4.855l-28.328-145.75a5.998 5.998 0 015.89-7.145h31.5a6 6 0 015.89 4.855l15.283 78.645h20.23c9.362 0 11.327-2 11.406-2.086.568-.61 1.315-3.44.082-9.78l-12.53-64.49a5.998 5.998 0 015.89-7.144h32a6 6 0 015.89 4.855l13.178 67.825c3.093 15.921.447 27.864-7.86 35.5-7.929 7.281-21.209 10.82-40.6 10.82h-20.784l6.143 31.605a6.001 6.001 0 01-5.89 7.145m0-6l-7.53-38.75h28.061c17.657 0 29.836-3.082 36.54-9.238 6.702-6.16 8.71-16.14 6.031-29.938l-13.18-67.824h-32l12.531 64.488c1.426 7.336.902 12.34-1.574 15.008-2.477 2.668-7.746 4.004-15.805 4.004H281.56l-16.226-83.5h-31.5l28.328 145.75h31.5" fill="#fff" /><path d="M409.55 145.307c12.065 0 21.072 2.225 26.77 6.61 5.639 4.34 9.533 11.862 11.575 22.354 1.903 9.806 1.178 16.653-2.155 20.348-3.407 3.774-10.773 5.688-21.893 5.688h-19.281l-10.69-55h15.674zm-63.062-67.75a2.999 2.999 0 00-2.945 3.572l28.328 145.75a3.002 3.002 0 002.946 2.428h61.053c19.189 0 33.47-5.21 42.448-15.487 9.025-10.33 11.81-24.771 8.283-42.921-1.438-7.394-3.907-14.261-7.342-20.41-3.44-6.154-7.984-11.85-13.511-16.93-6.616-6.191-14.104-10.681-22.236-13.323-8.003-2.607-18.281-3.93-30.548-3.93H388.24l-7.057-36.321a3.001 3.001 0 00-2.946-2.428h-31.75z" /><path d="M407.04 197.307h16.807c13.421 0 18.083-2.945 19.667-4.7 2.63-2.914 3.125-9.058 1.435-17.766-1.898-9.75-5.417-16.664-10.458-20.546-5.162-3.974-13.554-5.988-24.94-5.988h-12.034l9.522 49zm28.83 35h-61.054a6 6 0 01-5.889-4.855L340.6 81.702a6 6 0 015.889-7.144h31.75a6 6 0 015.89 4.854l6.587 33.895h22.25c12.581 0 23.173 1.372 31.478 4.077 8.541 2.775 16.401 7.481 23.356 13.986 5.752 5.291 10.488 11.23 14.078 17.655 3.591 6.427 6.171 13.594 7.668 21.302 3.715 19.105.697 34.403-8.969 45.467-9.572 10.957-24.613 16.513-44.706 16.513m-45.632-90h19.312c12.801 0 22.336 2.411 28.601 7.234 6.267 4.824 10.492 12.875 12.688 24.157 2.102 10.832 1.145 18.476-2.87 22.93-4.02 4.452-12.06 6.68-24.122 6.68h-21.754l-11.855-61m45.632 84c18.367 0 31.766-4.82 40.188-14.462 8.422-9.64 10.957-23.098 7.597-40.375-1.383-7.117-3.722-13.624-7.015-19.519-3.297-5.899-7.602-11.293-12.922-16.184-6.34-5.933-13.383-10.16-21.133-12.679-7.75-2.525-17.62-3.782-29.62-3.782h-27.197l-7.53-38.75h-31.75l28.328 145.75h61.054" fill="#fff" /></g></symbol><clipPath id="icon--php_a"><path d="M11.52 162C11.52 81.677 135.307 16.561 288 16.561S564.481 81.677 564.481 162c0 80.322-123.788 145.439-276.481 145.439-152.693 0-276.48-65.117-276.48-145.439" /></clipPath><clipPath id="icon--php_c"><path d="M0 324h576V0H0v324z" /></clipPath><clipPath id="icon--php_d"><path d="M0 324h576V0H0v324z" /></clipPath><radialGradient cx="0" cy="0" fx="0" fy="0" gradientTransform="matrix(363.05789 0 0 -363.05789 177.52 256.307)" gradientUnits="userSpaceOnUse" id="icon--php_b" r="1" spreadMethod="pad"><stop offset="0" stop-color="#aeb2d5" /><stop offset=".3" stop-color="#aeb2d5" /><stop offset=".75" stop-color="#484c89" /><stop offset="1" stop-color="#484c89" /></radialGradient><symbol viewBox="0 -1.741 256 97.927" id="icon--pwa-logo"><g fill="none"><path d="M165.35 96.185L204.209 0h-25.761l-26.58 62.157L132.964 0h-19.802L92.868 62.157 78.555 33.833 65.603 73.66l13.15 22.526h25.353l18.34-55.741 17.486 55.741z" fill="#fb8c00" /><path d="M24.393 63.166H40.22c4.795 0 9.064-.535 12.808-1.606l4.094-12.618 11.44-35.264a28.175 28.175 0 00-2.986-3.92C59.704 3.253 51.109 0 39.794 0H0v96.185h24.393zm20.95-41.038c2.295 2.31 3.442 5.402 3.442 9.276 0 3.903-1.01 6.998-3.027 9.286-2.212 2.542-6.285 3.813-12.219 3.813h-9.146v-25.84h9.214c5.53 0 9.442 1.155 11.737 3.465zm143.08 56.83l7.395-18.663h21.348l-10.131-28.31L219.707 0 256 96.185h-26.766l-6.201-17.227z" fill="#616161" /></g></symbol><symbol viewBox="0 0 256 230" preserveAspectRatio="xMinYMin meet" id="icon--react"><path d="M.754 114.75c0 19.215 18.763 37.152 48.343 47.263-5.907 29.737-1.058 53.706 15.136 63.045 16.645 9.6 41.443 2.955 64.98-17.62 22.943 19.744 46.13 27.514 62.31 18.148 16.63-9.627 21.687-35.221 15.617-65.887 30.81-10.186 48.044-25.481 48.044-44.949 0-18.769-18.797-35.006-47.979-45.052 6.535-31.933.998-55.32-15.867-65.045-16.259-9.376-39.716-1.204-62.996 19.056C104.122 2.205 80.897-4.36 64.05 5.392 47.806 14.795 43.171 39.2 49.097 69.487 20.515 79.452.754 96.057.754 114.75z" fill="#FFF" /><path d="M201.025 79.674a151.364 151.364 0 00-7.274-2.292 137.5 137.5 0 001.124-4.961c5.506-26.728 1.906-48.26-10.388-55.348-11.787-6.798-31.065.29-50.535 17.233a151.136 151.136 0 00-5.626 5.163 137.573 137.573 0 00-3.744-3.458c-20.405-18.118-40.858-25.752-53.139-18.643-11.776 6.817-15.264 27.06-10.307 52.39a150.91 150.91 0 001.67 7.484 149.875 149.875 0 00-8.363 2.63c-23.922 8.34-39.2 21.412-39.2 34.97 0 14.004 16.4 28.05 41.318 36.566a128.44 128.44 0 006.11 1.91 147.813 147.813 0 00-1.775 8.067c-4.726 24.89-1.035 44.653 10.71 51.428 12.131 6.995 32.491-.195 52.317-17.525 1.567-1.37 3.14-2.823 4.715-4.346a148.34 148.34 0 006.108 5.573c19.204 16.525 38.17 23.198 49.905 16.405 12.12-7.016 16.058-28.247 10.944-54.078-.39-1.973-.845-3.988-1.355-6.04 1.43-.422 2.833-.858 4.202-1.312 25.904-8.582 42.757-22.457 42.757-36.648 0-13.607-15.77-26.767-40.174-35.168z" fill="#53C1DE" /><path d="M195.406 142.328c-1.235.409-2.503.804-3.795 1.187-2.86-9.053-6.72-18.68-11.442-28.625 4.507-9.71 8.217-19.213 10.997-28.208 2.311.67 4.555 1.375 6.717 2.12 20.91 7.197 33.664 17.84 33.664 26.04 0 8.735-13.775 20.075-36.14 27.486zm-9.28 18.389c2.261 11.422 2.584 21.749 1.086 29.822-1.346 7.254-4.052 12.09-7.398 14.027-7.121 4.122-22.35-1.236-38.772-15.368a138.39 138.39 0 01-5.682-5.18c6.367-6.964 12.73-15.06 18.94-24.05 10.924-.969 21.244-2.554 30.603-4.717.46 1.86.87 3.683 1.223 5.466zm-93.85 43.137c-6.957 2.457-12.498 2.527-15.847.596-7.128-4.11-10.09-19.98-6.049-41.265a138.507 138.507 0 011.65-7.502c9.255 2.047 19.5 3.52 30.45 4.408 6.251 8.797 12.798 16.883 19.396 23.964a118.863 118.863 0 01-4.305 3.964c-8.767 7.664-17.552 13.1-25.294 15.835zm-32.593-61.58c-11.018-3.766-20.117-8.66-26.354-14-5.604-4.8-8.434-9.565-8.434-13.432 0-8.227 12.267-18.722 32.726-25.855a139.276 139.276 0 017.777-2.447c2.828 9.197 6.537 18.813 11.013 28.537-4.534 9.869-8.296 19.638-11.15 28.943a118.908 118.908 0 01-5.578-1.746zm10.926-74.37c-4.247-21.703-1.427-38.074 5.67-42.182 7.56-4.376 24.275 1.864 41.893 17.507 1.126 1 2.257 2.047 3.39 3.13-6.564 7.049-13.051 15.074-19.248 23.82-10.627.985-20.8 2.567-30.152 4.686a141.525 141.525 0 01-1.553-6.962zm97.467 24.067a306.982 306.982 0 00-6.871-11.3c7.21.91 14.117 2.12 20.603 3.601-1.947 6.241-4.374 12.767-7.232 19.457a336.42 336.42 0 00-6.5-11.758zm-39.747-38.714c4.452 4.823 8.911 10.209 13.297 16.052a284.245 284.245 0 00-26.706-.006c4.39-5.789 8.887-11.167 13.409-16.046zm-40.002 38.78a285.24 285.24 0 00-6.378 11.685c-2.811-6.667-5.216-13.222-7.18-19.552 6.447-1.443 13.322-2.622 20.485-3.517a283.79 283.79 0 00-6.927 11.384zm7.133 57.683c-7.4-.826-14.379-1.945-20.824-3.348 1.995-6.442 4.453-13.138 7.324-19.948a283.494 283.494 0 006.406 11.692 285.27 285.27 0 007.094 11.604zm33.136 27.389c-4.575-4.937-9.138-10.397-13.595-16.27 4.326.17 8.737.256 13.22.256 4.606 0 9.159-.103 13.64-.303-4.4 5.98-8.843 11.448-13.265 16.317zm46.072-51.032c3.02 6.884 5.566 13.544 7.588 19.877-6.552 1.495-13.625 2.699-21.078 3.593a337.537 337.537 0 006.937-11.498 306.632 306.632 0 006.553-11.972zm-14.915 7.15a316.478 316.478 0 01-10.84 17.49c-6.704.479-13.632.726-20.692.726-7.031 0-13.871-.219-20.458-.646A273.798 273.798 0 0196.72 133.28a271.334 271.334 0 01-9.64-18.206 273.864 273.864 0 019.611-18.216v.002a271.252 271.252 0 0110.956-17.442 273.484 273.484 0 0141.188.006 290.704 290.704 0 0110.887 17.383 316.418 316.418 0 019.741 18.13 290.806 290.806 0 01-9.709 18.29zm19.913-107.792c7.566 4.364 10.509 21.961 5.755 45.038a127.525 127.525 0 01-1.016 4.492c-9.374-2.163-19.554-3.773-30.212-4.773-6.209-8.841-12.642-16.88-19.1-23.838a141.92 141.92 0 015.196-4.766c16.682-14.518 32.273-20.25 39.377-16.153z" fill="#FFF" /><path d="M128.221 94.665c11.144 0 20.177 9.034 20.177 20.177 0 11.144-9.033 20.178-20.177 20.178-11.143 0-20.177-9.034-20.177-20.178 0-11.143 9.034-20.177 20.177-20.177" fill="#53C1DE" /></symbol><symbol viewBox="0 0 547.8 410.6" id="icon--sass"><path fill="#CD6799" d="M471.4 236c-19.1.1-35.7 4.7-49.6 11.5-5.1-10.1-10.2-19.1-11.1-25.7-1-7.7-2.2-12.4-1-21.6 1.2-9.2 6.6-22.3 6.5-23.3s-1.2-5.7-12.2-5.8c-11-.1-20.5 2.1-21.6 5-1.1 2.9-3.2 9.5-4.6 16.3-1.9 10-22 45.7-33.5 64.4-3.7-7.3-6.9-13.7-7.6-18.8-1-7.7-2.2-12.4-1-21.6 1.2-9.2 6.6-22.3 6.5-23.3-.1-1-1.2-5.7-12.2-5.8-11-.1-20.5 2.1-21.6 5-1.1 2.9-2.3 9.7-4.6 16.3-2.3 6.6-29 66.2-36 81.6-3.6 7.9-6.7 14.2-8.9 18.5s-.1.3-.4.8c-1.9 3.7-3 5.7-3 5.7v.1c-1.5 2.7-3.1 5.2-3.9 5.2-.6 0-1.7-7.2.2-17 4-20.7 13.5-52.9 13.4-54 0-.6 1.8-6.2-6.2-9.1-7.8-2.9-10.6 1.9-11.3 1.9-.7 0-1.2 1.7-1.2 1.7s8.7-36.2-16.6-36.2c-15.8 0-37.6 17.3-48.4 32.9-6.8 3.7-21.3 11.6-36.8 20.1-5.9 3.3-12 6.6-17.7 9.7-.4-.4-.8-.9-1.2-1.3-30.6-32.7-87.2-55.8-84.8-99.7.9-16 6.4-58 108.7-109 84.2-41.5 151.2-30 162.8-4.5 16.6 36.4-35.9 104-122.9 113.8-33.2 3.7-50.6-9.1-55-13.9-4.6-5-5.3-5.3-7-4.3-2.8 1.5-1 6 0 8.6 2.6 6.8 13.3 18.8 31.4 24.7 16 5.2 54.9 8.1 102-10.1 52.7-20.4 93.9-77.1 81.8-124.6C330.7 2 250.7-13.9 175 13 130 29 81.2 54.2 46.1 87 4.4 126-2.2 159.9.5 174.1c9.7 50.4 79.2 83.2 107 107.5-1.4.8-2.7 1.5-3.8 2.1-13.9 6.9-66.9 34.6-80.1 63.9-15 33.2 2.4 57 13.9 60.2 35.7 9.9 72.4-7.9 92.1-37.3 19.7-29.4 17.3-67.6 8.2-85.1-.1-.2-.2-.4-.4-.6 3.6-2.1 7.3-4.3 10.9-6.4 7.1-4.2 14.1-8.1 20.1-11.3-3.4 9.3-5.9 20.4-7.1 36.4-1.5 18.8 6.2 43.2 16.3 52.8 4.5 4.2 9.8 4.3 13.2 4.3 11.8 0 17.1-9.8 23-21.4 7.2-14.2 13.7-30.7 13.7-30.7s-8.1 44.6 13.9 44.6c8 0 16.1-10.4 19.7-15.7v.1s.2-.3.6-1c.8-1.3 1.3-2.1 1.3-2.1v-.2c3.2-5.6 10.4-18.3 21.1-39.4 13.8-27.2 27.1-61.2 27.1-61.2s1.2 8.3 5.3 22.1c2.4 8.1 7.4 17 11.4 25.6-3.2 4.5-5.2 7-5.2 7l.1.1c-2.6 3.4-5.4 7.1-8.5 10.7-10.9 13-23.9 27.9-25.7 32.2-2.1 5.1-1.6 8.8 2.4 11.8 2.9 2.2 8.1 2.5 13.4 2.2 9.8-.7 16.7-3.1 20.1-4.6 5.3-1.9 11.5-4.8 17.3-9.1 10.7-7.9 17.2-19.2 16.6-34.1-.3-8.2-3-16.4-6.3-24.1 1-1.4 1.9-2.8 2.9-4.2 16.9-24.7 30-51.8 30-51.8s1.2 8.3 5.3 22.1c2 7 6.1 14.6 9.7 22-15.9 12.9-25.7 27.9-29.2 37.7-6.3 18.2-1.4 26.4 7.9 28.3 4.2.9 10.2-1.1 14.6-3 5.6-1.8 12.2-4.9 18.5-9.5 10.7-7.9 21-18.9 20.4-33.8-.3-6.8-2.1-13.5-4.6-20 13.5-5.6 30.9-8.7 53.1-6.1 47.6 5.6 57 35.3 55.2 47.8-1.8 12.5-11.8 19.3-15.1 21.4-3.3 2.1-4.4 2.8-4.1 4.3.4 2.2 2 2.1 4.8 1.7 3.9-.7 25-10.1 25.9-33.1 1.5-29.4-26.5-61.5-76-61.2zM104.2 359.8C88.4 377 66.4 383.5 56.9 378c-10.2-5.9-6.2-31.3 13.2-49.5 11.8-11.1 27-21.4 37.1-27.7 2.3-1.4 5.7-3.4 9.8-5.9.7-.4 1.1-.6 1.1-.6l2.4-1.5c7.1 26 .3 48.9-16.3 67zm115-78.2c-5.5 13.4-17 47.7-24 45.8-6-1.6-9.7-27.6-1.2-53.3 4.3-12.9 13.4-28.3 18.7-34.3 8.6-9.6 18.1-12.8 20.4-8.9 2.9 5.1-10.5 42.3-13.9 50.7zm94.9 45.4c-2.3 1.2-4.5 2-5.5 1.4-.7-.4 1-2 1-2s11.9-12.8 16.6-18.6c2.7-3.4 5.9-7.4 9.3-11.9v1.3c0 15.3-14.8 25.6-21.4 29.8zm73.2-16.7c-1.7-1.2-1.4-5.2 4.3-17.7 2.2-4.9 7.4-13.1 16.3-21 1 3.2 1.7 6.3 1.6 9.2-.1 19.3-13.9 26.5-22.2 29.5z" /></symbol><symbol viewBox="0 0 112 112" id="icon--tailwind"><defs><filter x="-12.5%" y="-8.9%" width="125%" height="125%" id="icon--tailwind_a"><feOffset dy="2" in="SourceAlpha" result="shadowOffsetOuter1"></feOffset><feGaussianBlur stdDeviation="2" in="shadowOffsetOuter1" result="shadowBlurOuter1"></feGaussianBlur><feColorMatrix values="0 0 0 0 0 0 0 0 0 0 0 0 0 0 0 0 0 0 0.1 0" in="shadowBlurOuter1"></feColorMatrix></filter><circle id="icon--tailwind_b" cx="48" cy="28" r="28" /></defs><g transform="translate(8 16)"><use filter="url(#icon--tailwind_a)" xlink:href="#icon--tailwind_b" /><use fill="#FFF" xlink:href="#icon--tailwind_b" /></g><path d="M38 24c1.333-5.333 4.667-8 10-8 8 0 9 6 13 7 2.667.667 5-.333 7-3-1.333 5.333-4.667 8-10 8-8 0-9-6-13-7-2.667-.667-5 .333-7 3zM28 36c1.333-5.333 4.667-8 10-8 8 0 9 6 13 7 2.667.667 5-.333 7-3-1.333 5.333-4.667 8-10 8-8 0-9-6-13-7-2.667-.667-5 .333-7 3z" fill="url(#icon--tailwind_c)" transform="translate(8 16)" /><path d="M11.445 86.352H8v-2.064h9.294v2.064H13.85v9.36h-2.405v-9.36zm10.347 8.304c-.33.373-.702.677-1.114.912-.41.235-.942.352-1.594.352-.374 0-.73-.048-1.065-.144a2.449 2.449 0 01-.883-.448 2.19 2.19 0 01-.6-.776c-.15-.315-.225-.69-.225-1.128 0-.576.128-1.045.385-1.408a2.607 2.607 0 011.01-.848 5.042 5.042 0 011.4-.432c.52-.085 1.045-.14 1.58-.16l1.073-.048v-.416c0-.512-.14-.864-.425-1.056a1.737 1.737 0 00-1-.288c-.888 0-1.395.336-1.523 1.008l-2.05-.192c.148-.875.533-1.507 1.152-1.896.62-.39 1.453-.584 2.5-.584.64 0 1.186.077 1.634.232.45.155.81.376 1.082.664.272.288.47.637.593 1.048.123.41.184.872.184 1.384v5.28h-2.115v-1.056zm-.048-2.672l-.993.048c-.47.02-.85.07-1.137.144-.288.075-.51.168-.665.28a.825.825 0 00-.312.392c-.054.15-.08.315-.08.496 0 .277.096.496.288.656.192.16.46.24.8.24.578 0 1.048-.133 1.41-.4.204-.15.37-.34.498-.568.128-.23.192-.515.192-.856v-.432zm3.986-4.624h2.243v8.352H25.73V87.36zm-.032-3.072h2.307v2.016h-2.307v-2.016zm4.194 0h2.243v11.424h-2.243V84.288zm3.25 3.072h2.434l1.17 5.536 1.602-5.472h1.955l1.522 5.472 1.17-5.536h2.34l-2.436 8.352h-2.18l-1.49-5.504-1.507 5.504h-2.147L33.14 87.36zm13.198 0h2.243v8.352H46.34V87.36zm-.032-3.072h2.307v2.016h-2.307v-2.016zm4.178 3.072h2.18v1.152c.33-.49.723-.848 1.177-1.072a3.168 3.168 0 011.418-.336c.952 0 1.657.248 2.116.744.46.496.69 1.277.69 2.344v5.52H55.82v-5.216c0-.587-.112-.987-.337-1.2-.224-.213-.523-.32-.897-.32-.288 0-.537.043-.745.128a2.073 2.073 0 00-.585.368c-.15.15-.275.328-.377.536-.1.208-.15.435-.15.68v5.024h-2.244V87.36zm15.186 7.248c-.64.907-1.506 1.36-2.596 1.36-1.175 0-2.05-.395-2.628-1.184-.576-.79-.865-1.883-.865-3.28 0-.65.083-1.245.25-1.784.164-.54.402-1.003.712-1.392.31-.39.69-.69 1.137-.904.45-.213.956-.32 1.523-.32.416 0 .83.075 1.24.224.413.15.8.437 1.163.864v-3.904h2.243v11.424h-2.178v-1.104zm-.048-3.168c0-.533-.045-.96-.136-1.28a1.77 1.77 0 00-.44-.784 1.382 1.382 0 00-.634-.376 2.679 2.679 0 00-.68-.088c-.246 0-.48.048-.698.144-.22.096-.41.245-.577.448a2.24 2.24 0 00-.393.8c-.096.33-.144.725-.144 1.184 0 .5.045.92.136 1.256.09.336.215.608.375.816.16.208.348.357.56.448.215.09.445.136.69.136.534 0 .972-.155 1.314-.464.213-.213.37-.472.472-.776.1-.304.152-.696.152-1.176v-.288zm17.538.32a5.277 5.277 0 01-.425 1.688 4.16 4.16 0 01-.945 1.344c-.4.38-.892.675-1.475.888-.582.213-1.257.32-2.026.32-.865 0-1.626-.144-2.283-.432a4.488 4.488 0 01-1.65-1.216c-.444-.523-.777-1.155-1.002-1.896-.224-.74-.336-1.56-.336-2.456 0-.928.122-1.76.367-2.496.246-.736.6-1.365 1.058-1.888a4.573 4.573 0 011.666-1.2c.653-.277 1.39-.416 2.213-.416.726 0 1.36.09 1.898.272.54.18.995.443 1.363.784.37.34.665.752.89 1.232.224.48.39 1.02.496 1.616l-2.372.304c-.118-.672-.345-1.2-.68-1.584-.338-.384-.87-.576-1.595-.576-.92 0-1.616.344-2.09 1.032-.477.688-.715 1.66-.715 2.92 0 1.27.254 2.245.762 2.928.507.683 1.188 1.024 2.043 1.024.737 0 1.28-.19 1.626-.568.346-.38.562-.92.648-1.624h2.564zm3.49.224c.052.704.28 1.216.68 1.536.4.32.99.48 1.77.48.374 0 .69-.04.946-.12.256-.08.464-.187.625-.32.16-.133.275-.29.344-.472.07-.18.104-.38.104-.592 0-.3-.11-.58-.335-.84-.225-.26-.636-.45-1.234-.568l-1.49-.272a8.84 8.84 0 01-1.554-.416 3.594 3.594 0 01-1.13-.664 2.66 2.66 0 01-.696-1c-.16-.395-.24-.864-.24-1.408 0-.544.11-1.024.328-1.44.22-.416.523-.763.913-1.04s.86-.488 1.403-.632A7.015 7.015 0 0188.881 84c.833 0 1.528.096 2.083.288.556.192 1.005.445 1.347.76.342.315.595.68.76 1.096a5.1 5.1 0 01.33 1.296l-2.26.288c-.117-.63-.344-1.083-.68-1.36-.337-.277-.847-.416-1.53-.416-.407 0-.74.035-1.002.104-.262.07-.473.16-.633.272a.935.935 0 00-.337.392c-.064.15-.096.304-.096.464 0 .427.12.747.36.96.24.213.648.38 1.225.496l1.57.304c1.24.245 2.148.643 2.725 1.192.576.55.865 1.34.865 2.376 0 .5-.094.963-.28 1.384-.188.42-.465.79-.834 1.104-.367.315-.83.56-1.385.736-.555.176-1.207.264-1.955.264-1.56 0-2.753-.333-3.58-1-.83-.667-1.275-1.672-1.34-3.016h2.42zm10.394 0c.053.704.28 1.216.68 1.536.4.32.992.48 1.77.48.375 0 .69-.04.947-.12.256-.08.464-.187.625-.32.16-.133.275-.29.344-.472.07-.18.104-.38.104-.592 0-.3-.112-.58-.336-.84-.224-.26-.636-.45-1.234-.568l-1.49-.272a8.792 8.792 0 01-1.554-.416 3.56 3.56 0 01-1.13-.664 2.663 2.663 0 01-.697-1c-.16-.395-.24-.864-.24-1.408 0-.544.11-1.024.328-1.44a2.96 2.96 0 01.913-1.04 4.3 4.3 0 011.402-.632A7.015 7.015 0 0199.273 84c.833 0 1.528.096 2.083.288.556.192 1.004.445 1.346.76.342.315.596.68.76 1.096a5.1 5.1 0 01.33 1.296l-2.26.288c-.117-.63-.344-1.083-.68-1.36-.337-.277-.847-.416-1.53-.416-.407 0-.74.035-1.002.104-.262.07-.473.16-.633.272a.935.935 0 00-.337.392c-.064.15-.096.304-.096.464 0 .427.12.747.36.96.24.213.65.38 1.226.496l1.57.304c1.24.245 2.148.643 2.725 1.192.577.55.865 1.34.865 2.376 0 .5-.093.963-.28 1.384a3.09 3.09 0 01-.834 1.104c-.368.315-.83.56-1.386.736-.555.176-1.207.264-1.954.264-1.56 0-2.754-.333-3.582-1-.828-.667-1.274-1.672-1.338-3.016h2.42z" fill="#24292E" /></symbol><linearGradient x1="0%" y1="0%" y2="100%" id="icon--tailwind_c"><stop stop-color="#2383AE" offset="0%" /><stop stop-color="#6DD7B9" offset="100%" /></linearGradient><symbol preserveAspectRatio="xMidYMid" viewBox="0 0 256 154" id="icon--tailwindcss-icon"><defs></defs><path d="M128 0C93.867 0 72.533 17.067 64 51.2 76.8 34.133 91.733 27.733 108.8 32c9.737 2.434 16.697 9.499 24.401 17.318C145.751 62.057 160.275 76.8 192 76.8c34.133 0 55.467-17.067 64-51.2-12.8 17.067-27.733 23.467-44.8 19.2-9.737-2.434-16.697-9.499-24.401-17.318C174.249 14.743 159.725 0 128 0zM64 76.8C29.867 76.8 8.533 93.867 0 128c12.8-17.067 27.733-23.467 44.8-19.2 9.737 2.434 16.697 9.499 24.401 17.318C81.751 138.857 96.275 153.6 128 153.6c34.133 0 55.467-17.067 64-51.2-12.8 17.067-27.733 23.467-44.8 19.2-9.737-2.434-16.697-9.499-24.401-17.318C110.249 91.543 95.725 76.8 64 76.8z" fill="url(#icon--tailwindcss-icon_a)" /></symbol><linearGradient x1="-2.778%" y1="32%" x2="100%" y2="67.556%" id="icon--tailwindcss-icon_a"><stop stop-color="#2298BD" offset="0%" /><stop stop-color="#0ED7B5" offset="100%" /></linearGradient><symbol viewBox="0 0 598.5 748.5" id="icon--twig"><g clip-rule="evenodd"><path fill="none" d="M-190-88h853v930h-853V-88zM64 694l-1.4-1c0 .3-.2.5-.3.7l1.4.7 2.4 6.4-6 5c3.5 1.6 6 3.4 9 4 5.4 1.4 11 2 16.4 3 3.3 0 6.6 0 10 .2 1.8-.4 3.7-1 5.6-1.3h8l1 1.4c.3.2.7.2 1 .2 1 0 1.8-.3 2.7-.4l20.3-1c1.6 2 1.8.5 2-.8l4 1c1.7-.5 4.2 1.4 5-1.8l4.6-.4c6.8.3 13.4-.5 20-4-1.7-1.7-2.7-3-3.8-4l3-10.8c-.3 0-.5-.2-.7-.3-2.5 3.7-5 7.5-7.7 11.2l-8.6-1 3.7-22h-.4l-8 21-15.2-1.2-1.8-13c0-.3 0-.7.2-1 .2-.4 0-.6 0-.8v-9c0-1.7.2-3.4.3-5l.6-6 .8-6c.3-.6.7-1 .8-1.8 1.7-5.8 2.8-11.8 5-17.4 5.2-13 14-21.5 29-21.5.4 0 .7-.5 1-.8-14.2-2.8-25.7-.6-36 6.7l-6.7 5h-.2l-.7-6.6-2-22.6-1.2-12c-.6-6.3-1-12.5-2-18.8-1.5-12.4-3.3-24.8-5-37.2l-4-28-3-18c-.3-2.7-.5-5.5-1-8.2-1-5.3-2.5-10.6-3.8-16V457c0-.6 0-1.3-.2-2-3-18.8-6.7-37.5-11.3-56-.3 1-.4 2-.3 3l2.5 69c.2 6 .6 12.2 1 18.3 0 10 0 20 .2 30 0 3.7.4 7.5.7 11.2 0 7.6 0 15.2.2 22.8 0 3.6-.2 7.2 0 10.8 0 5.4.5 10.8.8 16.2 0 6.3 0 12.7.2 19v14c-1-1-2.4-2-3-3.5C88.7 598 82 587.5 74 578c-5-7.3-12-12.8-19.2-17.5 3.3 4.8 7 9.3 10.2 14 2.3 3.3 4 7 6 10.3l1 2.3c5.6 13.5 9.8 27.4 12.3 41.8l4.4 26.3 2.3 43-3-6c-2.4-6.2-4.6-12.6-7-19l2.3 26c-4 .2-8.3-.7-11.6 2.7-2.5-2.6-5-5.2-7.7-7.7zm310-29l-8.7 8c-5.4-1.2-10.7-2.6-16-4 1.6-5.4 3.2-10.8 5-16.2-1.8 1-2.6 2.4-3.5 3.8l-7.6 12.6-10-1.2c0-1.7-.2-3.4-.4-5v-2c-.8-8-1.4-16-2-24l-.2-1v-2l-.7-11c-.2-4.6-.2-9.3-.3-14l.7-51c0-2 .2-4 .4-6 0-2.4.2-4.7.4-7l.7-10c0-1.4 0-2.7.2-4l1.4-13 1-8c0-.7 0-1.4.2-2l.6-5 .4-4c.5-2.4 1-4.7 1.3-7l.3-2.5 1-4.5c3.5-15.2 6.5-30.5 10.7-45.5 7.3-25.8 17.6-50.4 33-72.5 4.2-5.8 8.7-11.3 13-17l2.6-2.4c-7 1.6-12.2 5.4-17.2 9.7-16.6 14.2-28.3 32.2-38.3 51.3-14 27-24 55.4-32 84.6-.3 1.3-.8 2.4-1.6 4.5-.6-2-1-3.3-1.2-4.5v-4.4l.3-.3-.4-.2 1-10.3 1.5-28.4 2.6-36.3 4-41.3c.7-1.4 1.7-2.8 2-4.3 1-6.4 1.8-12.8 2.6-19.2 1-7.2 1.6-14.4 2.4-21.6 3-3.5 2.2-8 3-12 .3-.2.3-.5 0-.8.4-1 .8-2.2 1-3.3 7.5-38.7 17-77 29-114.3l12-35.4.6-1.2.8-2 1.6-3.4c6.3-14.3 12-29 19-42.8 9.6-19.2 19-38.6 36-52.7.4 0 .7-.2 1-.4 5.5-4.3 12-6 18.8-6.7 13.2-1.2 23.8 4.8 33.7 12.6 4.7 3.7 9 8 14.5 13-3-4.2-5-7.7-7.7-10.7-9.2-10.2-19.6-18.4-33.5-21.2-8-2.6-16-2-24 0-24 6.5-41 22.5-56 41l-3 3c-16.6 20.5-30.8 42.7-42.3 66.5-4 8-7 16.5-10.5 24.7-3 7.5-6 15-8.7 22.5-9.2 26.7-16.2 54-22 81.6-1.8 8.3-3 16.7-4.5 25l-.8 4c0 .7-.2 1.4-.4 2 0 1-.3 2-.4 3l-.8 3c-1.6 10.7-3 21.4-4.7 32l-2.7 20-1.5 9.3L268 407c-.2 2.6-.7 5.3-1 8-1 12.7-2.4 25.4-3.2 38.2-1.4 20.4-2.5 41-3.7 61.3-.7-.8-2-1.5-2.4-2.5-1.7-3.3-3-6.7-4.6-10-12.5-25.7-29.2-47.5-56-60-15.4-8-32-8.8-50-7.6 1.6.7 2 1 2.7 1.2 21.7 3.7 39.6 14.3 54.6 30 5.2 5.5 9.7 11.8 14.6 17.6 11 18 18.8 37.6 23.6 58.2l2.4 9.6 4.5 34.2c1 22.4 1.5 45-.4 67.4l-3-8.3-3-10V667c-6.8 1.4-13.6 2.8-20.3 4-3.7-2.8-5.6-7.6-10.7-10.4 2.8 5.2 5.2 9.5 7.3 14 1 2 2.5 2.8 4.7 2.7 1.3 1.2 2.4 3.2 4 3.6 5 1.3 10 2 15 3 .7 1.2 1.2 3.2 2 3.3 4.2 1 8.6 1.2 13 1.7l-.2-3c6.3.3 12.5.8 18.8 1 8.7 0 17.3 0 26-.2 5.6 0 11.2-.7 16.8-1.2l16.2-1.6-1.5 3.6h8.5l2.5-5.6 16-3h7.3l5.7-14z" /><path fill-rule="evenodd" fill="#619432" d="M260 514.5c1.3-20.4 2.4-41 3.8-61.3.8-12.8 2-25.5 3.3-38.3.3-2.7.8-5.4 1-8l7.4 1.2 9.6 1.8-1 16.3c-.7 11.7-1.6 23.4-2 35.2-.5 20.7-.7 41.5-1 62.2v19c0 1-.4 2-.7 3.2-3.8-2.7-3.4-8-8.3-10v7c-.2 2-.7 4-1 6h-1c-.3-1.8-.4-3.6-1-5.3l-9-27.6v-1.5z" /><path fill-rule="evenodd" fill="#B5C12E" d="M395 350c-4.3 5.7-8.8 11.2-13 17-15.4 22-25.7 46.7-33 72.5-4.2 15-7.2 30.3-10.8 45.5l-1 4.5v2.5c-1.3 2.2-2.7 4.3-1.4 7 0 1.3-.2 2.6-.4 4-2.4 1.3-1.6 3-.6 5l-.3 2c-2.7 2.3-1.5 5-1 8l-1.3 13c-1.8 1.2-1.6 2.5-.3 4l-.8 10c-2 2.2-1.5 4.5-.4 7l-.4 6c-3.5 0-6.3 1.2-8.7 3.7-1.3 1.4-3 2.2-4.7 3.3l1-7.8 1.3-14.7L322 518c1.3-7.5 2.5-15 4-22.3 3-15.2 5.8-30.5 9.6-45.5 4.3-17.2 10-34 17.7-50 7.2-15.6 16.2-29.7 28.7-41.5 3.7-3.5 8.6-5.8 13-8.7z" /><path fill-rule="evenodd" fill="#7D942C" d="M368 161.3l-12 35.4c-12 37.4-21.5 75.6-29 114.2-.2 1-.6 2-1 3.2-.6-2.3 1.2-5.4-2.4-7.4l-4.7 5.5c-2.5 3-5 5.4-9 5.7v-1l1-1c0-1.3 0-2.7.2-4 4.7-19 9.3-38 14.3-57 3.8-14 8.3-28 12.5-42 2.3-7.2 4.5-14.4 7-21.5l12-32.5c1.2-.4 2.6-.6 3.6-1.3 3-2.2 6-2 8.8.4l-.8 2-.5 1.3z" /><path fill-rule="evenodd" fill="#92B646" d="M281.8 310c1.5-8.3 2.7-16.7 4.4-25 6-27.5 13-54.8 22-81.5 2.7-7.6 6-15 8.8-22.5 3.4-.4 2.8 2 3 4.2.7 5.4 2 10.5 8 12.8l-4 12c-3 10-6.3 19.8-9 29.8-3.6 13-6.8 25.8-10 38.8-2.2 8.4-4 17-6 25.4-5 .8-10.6.3-14.5 4.7-.7.7-1.8 1-2.7 1.3z" /><path fill-rule="evenodd" fill="#50782E" d="M307.2 488.8v4.4L307 504l-3.5 10.4-1.5 6.6c-1-1-2.5-2-3-3-1-3.7-1.2-7.4-2.2-11-.4-1.5-1.8-2.7-2.8-4-.3-3-1-6.2-1-9.3l1-65V427l2-20 2-13c4.8-1.5 9.7-1.2 15-.6l-1 20-2.5 36.2L308 478l-1 10.3c0 .2 0 .4.2.5z" /><path fill-rule="evenodd" fill="#BFCD32" d="M307 504c0-3.6 0-7.2.2-10.8l1.2 4.5c.8-2 1.3-3.2 1.6-4.5 8-29.2 18-57.7 32-84.6 10-19 21.8-37 38.3-51.3 5-4.3 10.4-8 17.3-9.7L395 350c-4.4 3-9.3 5.2-13 8.7-12.5 11.8-21.5 26-28.7 41.4-7.6 16.3-13.4 33-17.7 50.2-3.8 15-6.5 30.3-9.6 45.5-1.5 7.4-2.7 14.8-4 22.3-1-.2-2.2 0-2.8-.6-4.8-3.8-10.2-7-12.2-13.4z" /><path fill-rule="evenodd" fill="#99BC4A" d="M328 198c-6-2.3-7.3-7.4-8-12.8-.2-2.2.4-4.6-3-4.2 3.5-8.2 6.6-16.6 10.5-24.7 11.5-23.8 25.7-46 42.4-66.6.8-1 1.7-2 2.6-2.8l7.4 5-3 6c-.7.7-1.5 1.3-2 2-6 10.5-12.5 20.8-18 31.5-11.5 21.4-20 44-29 66.5z" /><path fill-rule="evenodd" fill="#889A2B" d="M369.4 158c-2.8-2.3-5.7-2.5-8.8-.3-1 .7-2.4 1-3.6 1.3 5.4-12.8 10.6-25.7 16.3-38.4 3-7 7-13.7 10.7-20.6 1-1.2 2-2.2 2.7-3.5 7.5-13 16.8-24.5 28-34.5 2-2 4.7-3.4 7-5l4.4 2c-17 14.2-26.4 33.6-36 52.8-7 14-12.7 28.5-19 42.8l-1.6 3.5z" /><path fill-rule="evenodd" fill="#9EC534" d="M245 551l-2.4-9.6c-4.8-20.6-12.5-40-23.7-58.2-.2-3-1.5-6 .6-9 .4-.4-.3-1.7-.6-2.6l-4-14.6c10.2 8.3 17.7 18.7 24.4 30 2 3.6 4 7.5 5.5 11.5 1 2.2 1 4.8 2 7 5.5 15.5 6.4 30.7-2 45.5z" /><path fill-rule="evenodd" fill="#94C02D" d="M245 551c8.4-14.8 7.5-30 2-45.4-1-2.3-1-5-2-7-1.7-4-3.4-8-5.6-11.7-6.7-11.3-14.2-21.7-24.4-30l-16.8-12c-1-.7-3.3-1.2-1-3 26.6 12.5 43.3 34.3 55.8 60l4.6 10c.5 1 1.6 1.7 2.5 2.5v1.6c-1 .7-2.8 1.3-2.8 2 0 2.8 0 5.8.7 8.7 1.8 7.7 3.8 15.3 6.2 22.8 1 3 .5 5.4-1.3 7.8-5.8 7.6-10.5 15.6-11 25.5-.2.8-1.7 1.6-2.5 2.4L245 551z" /><path fill-rule="evenodd" fill="#8EB52A" d="M249.5 585.2c.8-.8 2.3-1.6 2.4-2.4.5-10 5.2-18 11-25.5 1.7-2.4 2-4.7 1-7.8-2.2-7.5-4.2-15.2-6-22.8-.8-3-1-6-.8-8.8 0-.7 1.7-1.3 2.7-2l9 27.7c.6 1.7.7 3.5 1 5.3-3 3-5 6.5-3.5 11 1 2.4.2 3.7-2 5.3-8 6-10 17.3-4.4 26.3 5.3 8.4 6.6 17 2.6 26.4-2.6 6-4.6 12-6.7 18-2.4 6.7.6 14-2.8 20.6-.3.5.7 1.6.6 2.3l-.8 8-4-14.4c2-22.5 1.6-45 .5-67.4z" /><path fill-rule="evenodd" fill="#9EC534" d="M88.7 655l-4.4-26c-2.5-14.4-6.7-28.3-12.4-41.7-.4-.6-.7-1.4-1-2.2l1-5c.3-.8 1.4-1.3 2-1.8 8 9.5 14.6 20 19.3 31.5.5 1.4 2 2.4 3 3.5.8 5 1.8 10 2.8 15-3.2 1.7-2 4.5-1.5 7l2.6 11.2c-4.4 3.5-8 6.2-11.3 9z" /><path fill-rule="evenodd" fill="#6C9B31" d="M285 410l-9.6-1.8-7.3-1.2c1-8 1.7-15.8 2.5-23.7l1.5-9.3c3.6 1 7.2 2 10.8 3.4 4 1.4 5.7.4 6.2-4 .6-5.7 1.4-11.4 2.2-17 4.3 0 8 .4 11.8.6l-2 11-2 15-11-1-2 24-1 4z" /><path fill-rule="evenodd" fill="#6F8B2E" d="M301 368l2-11 2.5-15c1.4-7.7 3-15.3 4.5-23v-1c4-.3 6.5-2.8 9-5.7l4.6-5.5c3.6 2 1.8 5 2.5 7.4.3.3.3.6 0 .8-.7 1.5-1.6 3-2 4.6-.5 2.4-.7 5-1 7.3l-2.4 21.5-2.7 19.2c-.3 1.5-1.4 3-2 4.3l1-5c-5.6.2-10.8-.8-16 1z" /><path fill-rule="evenodd" fill="#7EA32E" d="M310 319l-4.5 23c-1 5-1.7 10-2.5 15l-11.8-.7c-.8 5.7-1.6 11.4-2.2 17-.5 4.5-2 5.5-6.2 4L272 374l2.7-20c2.2 0 4.6-.8 6.6-.2 5.8 1.7 10-1 10.8-7 1-8 2.7-15.8 4-23.8l3.8-1 10.2-3z" /><path fill-rule="evenodd" fill="#8EB52A" d="M88.7 655l11.4-8.8-2.5-11.2c-.5-2.5-1.7-5.3 1.6-7 .7.4 1.7.8 1.8 1.3.7 2.2 1.3 4.5 1.7 6.7l2.2 16.6c-5-1.2-6-.8-8.6 4.4-2.6.2-2.2 2-1.6 3.6 1 3 3.3 5 6.5 5.4 1.8.2 3 1 3 3 .6 13 1.2 26 2 39l-12.8-.7L91 698l-2.3-43z" /><path fill-rule="evenodd" fill="#7EA32E" d="M332.8 663l.4 5 .7 11h-20v-39l6.2-3.7 9.6-6.3.7 4v2l-.2.3c0 .3.3.5.4.7l2 24v2z" /><path fill-rule="evenodd" fill="#ACCA3E" d="M197 442c-2 1.8 0 2.3 1.2 3l16.8 12 4 14.6c.3 1 1 2.2.6 2.7-2 3-.8 6-.7 9-5-6-9.5-12.2-14.7-17.7-15-15.7-33-26.3-54.6-30-.6 0-1-.5-2.7-1.2 18-1.2 34.6-.5 50 7.5z" /><path fill-rule="evenodd" fill="#88AD38" d="M296 323c-1.3 8-3 16-4 24-.7 5.8-5 8.5-10.7 6.8-2-.6-4.4 0-6.6.2 1.5-10.6 3-21.3 4.7-32 2-.5 2-1.6.8-3 0-1 .3-2 .4-3l.4-2 .8-4c1-.4 2-.6 2.6-1.3 4-4.4 9.5-4 14.6-4.7l-.5 4-2.5 15z" /><path fill-rule="evenodd" fill="#A2BE2A" d="M317 565c1.6-1 3.4-2 4.7-3.3 2.4-2.5 5.2-3.8 8.7-3.6l-.7 51c-2.3 1-5 1.6-7 3-3 2-5.8 4.6-8.7 7 .3-3.3.8-6.6 1-10l2-38v-6zm-185.2 93l-.7 6c0 2-.3 4-.5 6l-.2 5h-3c-4.8.2-5.4.8-5.4 5.6v5.4l1 11-14 2v-25.3c0-2 .7-3.8 1-5.7l2-7.5c2.6 1.8 5 4 8 1.6 2.2-1.5 3.4-3.6 2.5-6.4-1-3-3.7-4.3-8-3.8.4-2 1-4 1.5-5.8.6.3 1 .7 1.8 1 5.2 1.4 9.4 4.2 11.6 9.6.3.6 1.5 1 2.4 1.4z" /><path fill-rule="evenodd" fill="#B2C92A" d="M131.8 658c-1-.5-2-.8-2.4-1.4-2.2-5.4-6.4-8.2-11.6-9.7l-1.8-1 3-7.2 6-10.6c2-1.7 4.3-3.4 6.5-5 10.4-7.3 22-9.5 36.2-6.7-.4.3-.7.8-1 .8-15 0-24 8.5-29 21.5-2.3 5.6-3.4 11.6-5 17.4-.2.7-.6 1.2-1 1.8z" /><path fill-rule="evenodd" fill="#79AA2D" d="M109.8 503l4 28c-1 2.5-3.3 5-3.3 7.5 0 5.5 1 11 1.7 16.6 1 9.4 2 18.7 2.8 28l-10-1-2-34v-5c-.4-4.7 0-9.3 2.7-13.2 4.3-6 1.2-12 .3-17.8v-7l3.8-2z" /><path fill-rule="evenodd" fill="#ACCA3E" d="M102 457v3.8c0 2 .4 4.2.3 6.3-.2 3-1.4 5.8-1 8.6.6 6.6-.6 9-6.5 11.8-.5.2-.6 1-1 1.7L93 471c-1-23-2-45.8-2.8-68.7 0-1 0-2 .3-3 4.6 18.5 8.2 37.2 11.3 56l-.6 2.4c.3 0 .5-.2.8-.3z" /><path fill-rule="evenodd" fill="#ABC751" d="M380 92l-7.4-5c15.2-18.7 32.2-34.7 56.2-41 8-2.2 16-2.8 24-.2-3 0-6 0-8.8.2-1.6 0-3.4 0-5 .2-18.4 3.5-32.2 14.3-44 28-5.2 6-10 12-15 17.8z" /><path fill-rule="evenodd" fill="#D2D3CF" d="M314 679h20l-.8-11 10 1.2c-2.5 5-5 10-7.6 14.8l-16.2 1.6c-5.6.5-11.2 1-16.8 1.2-8.7.3-17.3.2-26 0-6.3 0-12.5-.5-18.8-.8l-1.8-7 5.8.8 15 2.7c3.5.5 7 2.8 10.7 1 3.3-.3 6.6 0 9.8-.7 5-1 10.6.3 15-3.6.4 0 1 0 1.6-.2z" /><path fill-rule="evenodd" fill="#527E2F" d="M301 368c5.2-1.8 10.4-.8 16-1l-1 5-4 41.3 1-20c-5.3-.5-10.2-.8-15 .7l1-11 2-15z" /><path fill-rule="evenodd" fill="#94C02D" d="M94 489c.2-.5.3-1.4.8-1.6 6-2.8 7-5.3 6.4-11.8-.3-2.8 1-5.7 1-8.5.2-2 0-4 0-6.2 1 5.4 2.5 10.7 3.6 16 .5 2.7.7 5.5 1 8.2-1 1.7-2.7 3.4-2.6 5 .2 5 1 10 1.8 15v7c-1.6 1.4-4.4 2.6-4.7 4.3-.7 3.8-2.7 4.8-6.4 4v10c-.4-3.8-.8-7.6-.8-11.4l-.3-30z" /><path fill-rule="evenodd" fill="#9EC534" d="M256 679l1.8 7c0 .8 0 1.6.2 3-4.5-.5-8.8-.8-13-1.7-.8 0-1.3-2-2-3.3v-49.8l3 10 3 8.4 4 14.4 3 12z" /><path fill-rule="evenodd" fill="#7D942C" d="M444 46c3 0 6 0 8.8-.2 13.8 2.8 24.3 11 33.5 21 2.7 3 4.7 6.6 7.7 10.8-5.4-5-9.8-9.3-14.6-13-9.8-7.8-20.4-13.8-33.6-12.7-6.8.5-13.3 2.3-19 6.6l-.7.5-4.2-2c1.2-1.2 2.3-2.6 3.8-3.2 6-2.7 12.2-5.2 18.4-7.8z" /><path fill-rule="evenodd" fill="#50782E" d="M125 628.2l-6 10.6-3 7.2-1.6 5.8-3 4.5.2 2.7.5 1.5-2 7.5c-.7-.7-1.7-1.4-2-2.2-.2-2-.2-4-.3-6.2v-4l.2-2.7v-6c4 .8 4.4-2.2 5-5 .8-4 1.5-8 2.6-12 1.3-5 3.2-9.8 2.4-15v-12.3c0-2.7 1.2-4 4-3.7l2 22.6.8 6.5v.2z" /><path fill-rule="evenodd" fill="#96B024" d="M314 619c3-2.4 5.6-5 8.7-7 2-1.4 4.7-2 7-3 0 4.7 0 9.4.2 14-.2 2.4-.2 4.7-.2 7l-9.6 6.3-6.2 3.7v-21z" /><path fill-rule="evenodd" fill="#94C02D" d="M103 548l2 34v6c-2.7-1-5.3-1.7-7.3-2.3L96 580l-1-16.2c0-3.6 0-7.2.2-10.8 1-4.2 4-5.3 7.8-5z" /><path fill-rule="evenodd" fill="#8EB52A" d="M103 548c-3.8-.3-6.8.8-7.8 5l-.3-22.8v-9.8c3.6.7 5.6-.3 6.3-4 .3-1.8 3-3 4.7-4.4 1 6 4 11.8-.3 17.8-2.8 4-3 8.5-2.7 13.2v5z" /><path fill-rule="evenodd" fill="#6C9B31" d="M108 647v6c-.7 0-1.2.2-1.8.4l-1.5-.8-2.2-16.6c-.4-2.2-1-4.5-1.7-6.7 0-.5-1-1-1.7-1.3-1-5-2-10-2.8-15v-14l1.5 7h8.3v11l1 26.8c0 1 .6 2.2 1 3.2z" /><path fill-rule="evenodd" fill="#F1F2EF" d="M243 667v17c-5-1-10-1.7-15-3-1.6-.5-2.7-2.5-4-3.7l2.7-.8-4-5.4c6.7-1.2 13.5-2.6 20.2-4z" /><path fill-rule="evenodd" fill="#6C9B31" d="M115 583c-1-9.3-2-18.6-2.8-28-.6-5.5-1.7-11-1.7-16.5 0-2.5 2.2-5 3.3-7.5 1.7 12.4 3.5 24.8 5 37.2 1 6.3 1.4 12.5 2 18.8-1-2-1.3-5-4.8-4h-1z" /><path fill-rule="evenodd" fill="#578830" d="M116 583c3.5-1 4 2 4.8 4l1 12c-2.6-.2-4 1-3.8 3.7V615l-12 2v-14c3-.4 5.8-.7 8.6-1.4 1-.2 2.2-1.4 2.2-2.2 0-2.8-.5-5.6-.8-8.4v-8z" /><path fill-rule="evenodd" fill="#9EC534" d="M91 698l2.2 9.3c.5 1.2 1 2.4 1.7 3.6l.3 2c-3.3 0-6.6 0-10-.2 0-1-.3-1.8-.5-2.7-.4-3-.8-6-1-9l-.5-2-2.2-26c2.4 6.4 4.6 12.8 7 19l3 6z" /><path fill-rule="evenodd" fill="#889A2B" d="M123 697l-1-11 8-2c.3.2.4.4.2.7 0 .4 0 .8-.2 1.2l1.8 12.8.7 10c-3 .4-5.7 1-8.5 1.6l-1-13.4z" /><path fill-rule="evenodd" fill="#ACCA3E" d="M335.6 684c2.5-5 5-10 7.6-14.8l7.6-12.6c1-1.4 1.7-2.8 3.4-3.8l-5 16.2-4.2 13-2.5 5.6H334c.6-1.3 1-2.5 1.6-3.6z" /><path fill-rule="evenodd" fill="#96B024" d="M123 697l1 13.4-10.3 2.4c-1 0-1.8.3-2.7.4h-1l-1-1.4V699l14-2z" /><path fill-rule="evenodd" fill="#D2D3CF" d="M113.7 712.8l10.3-2.4 8.5-1.7-.7-10c5 .5 10 1 15 1.3-.8 3.4-1.8 6.7-2.8 10-1.6.2-3.7-.8-4 2l-4-1-2 1-20.3.8z" /><path fill-rule="evenodd" fill="#79AA2D" d="M106 603v3h-8.3l-1.5-7c0-6.3 0-12.7-.2-19l1.7 5.7 7.3 2.3v4l1 11z" /><path fill-rule="evenodd" fill="#F1F2EF" d="M345 682l4.2-13c5.4 1.4 10.7 2.8 16 4l-4.2 6-16 3zM84.8 710l.6 2.8c-5.5-1-11-1.6-16.4-3-3-.6-5.4-2.4-9-4l6-5c1 1 2 2 2.8 3.3 1.4 2.5 3 2.4 5.3 1l-2.3-3.3c3.3-3.4 7.6-2.5 11.6-2.8 0 .6.3 1.2.4 2-2.8 0-6 0-6.5 3.7-.4 2.7 2.4 4.7 6.6 5.3h1zm81-8.3l3.7 4.2c-6.5 3.3-13 4-20 3.8l2.3-8.8 8.5 1c1.8-.2 3.7-.2 5.5-.3z" /><path fill-rule="evenodd" fill="#ACCA3E" d="M151.8 701l-2.2 8.8c-1.5 0-3 .2-4.6.4l-1-.2 3-10 8-21h.4l-3.6 22zM74 578c-.6.5-1.7 1-2 1.7l-1 5c-2-3.3-3.7-7-6-10.2-3.2-4.7-7-9.2-10.2-14 7.3 4.7 14 10.2 19.2 17.5z" /><path fill-rule="evenodd" fill="#8EB52A" d="M106 505c-.7-5-1.6-10-1.8-15 0-1.6 1.7-3.3 2.6-5l3 18-3.8 2z" /><path fill-rule="evenodd" fill="#96B024" d="M130 684l-8 2v-5.4c0-4.8.6-5.4 5.4-5.6h2.5v9z" /><path fill-rule="evenodd" fill="#ACCA3E" d="M222.7 671l4 5.5-2.7.8c-2.2 0-3.6-.6-4.7-2.8-2-4.4-4.5-8.7-7.3-14 5 3 7 7.7 10.7 10.6zm138.3 8c1.4-2 3-4 4.3-6 3-2.6 5.8-5.3 8.7-8l-5.8 14H361z" /><path fill-rule="evenodd" fill="#82837E" d="M109 708.4v3.4h-8l-6-1c-.7-1-1.3-2.3-1.8-3.5l12.7.6c1 0 2 .3 3 .4z" /><path fill-rule="evenodd" fill="#ABC751" d="M71.7 701.7L74 705c-2 1.4-3.8 1.5-5.2-1-.7-1-1.8-2-2.7-3.2l-2.3-6.4c0-.2.2-.3.3-.4 2.6 2.5 5.2 5 7.7 7.7z" /><path fill-rule="evenodd" fill="#ACCA3E" d="M165.8 701.7c-1.8 0-3.7 0-5.5.2l7.8-11.3c.3 0 .5.2.7.3l-3 10.7z" /><path fill-rule="evenodd" fill="#7D942C" d="M323 327c.3-2.5.5-5 1-7.4.4-1.6 1.3-3 2-4.6-.8 4 0 8.5-3 12z" /><path fill-rule="evenodd" fill="#A2BE2A" d="M329.8 630v-7l.7 11-.7-4z" /><path fill-rule="evenodd" fill="#ABC751" d="M333.6 518c-.6-3-1.8-5.7 1-8l-1 8zm-2.8 34c-1-2.5-1.7-4.8.4-7l-.4 7zm5-53c-1.3-2.7 0-4.8 1.3-7l-1.2 7z" /><path fill-rule="evenodd" fill="#D2D3CF" d="M95 711l6 .7c-2 .4-3.8 1-5.7 1.3 0-.7-.3-1.4-.4-2z" /><path fill-rule="evenodd" fill="#ABC751" d="M334.8 508c-1-2-1.8-3.7.6-5l-.6 5z" /><path fill-rule="evenodd" fill="#F1F2EF" d="M144 710c.3 0 .7 0 1 .2-.8 3.2-3.3 1.3-5 1.7.3-2.8 2.4-1.8 4-2z" /><path fill-rule="evenodd" fill="#B2C92A" d="M130.5 670l.6-6c0 2-.3 4-.5 6z" /><path fill-rule="evenodd" fill="#ABC751" d="M332 535c-1.4-1.5-1.6-2.8.2-4l-.3 4zm5.3-45.5l1-4.5-1 4.5z" /><path fill-rule="evenodd" fill="#B2C92A" d="M124.8 628l-.7-6.4.8 6.5z" /><path fill-rule="evenodd" fill="#92B646" d="M280.2 319c1.3 1.4 1.2 2.5-.8 3l.8-3zm.8-5c0 .7-.2 1.4-.4 2l.4-2z" /><path fill-rule="evenodd" fill="#D2D3CF" d="M332.8 663v-2 2z" /><path fill-rule="evenodd" fill="#F1F2EF" d="M134 712l2-1c-.2 1.3-.4 2.8-2 1z" /><path fill-rule="evenodd" fill="#94C02D" d="M102 457l-.8.4.6-2.3c0 .7 0 1.4.2 2z" /><path fill-rule="evenodd" fill="#B2C92A" d="M130 677v-2h.3c0 .7 0 1.4-.2 2z" /><path fill-rule="evenodd" fill="#ABC751" d="M63.7 694.4l-1.4-.7.3-.6 1.4 1-.3.4z" /><path fill-rule="evenodd" fill="#BFCD32" d="M307.2 488.8c-.2 0-.2-.3 0-.5l.3.2-.3.3z" /><path fill-rule="evenodd" fill="#889A2B" d="M368 161.3l.6-1.2-.5 1.3z" /><path fill-rule="evenodd" fill="#B2C92A" d="M130 686c0-.5 0-1 .2-1.3 0 .4 0 .8-.2 1.2z" /><path fill-rule="evenodd" fill="#A2BE2A" d="M330.7 637l-.4-.7.3-.3v1z" /><path fill-rule="evenodd" fill="#889A2B" d="M426 59c.4 0 .6-.2 1-.4l-1 .5z" /><path fill-rule="evenodd" fill="#F1F2EF" d="M110 713c.3.2.7.2 1 .2h-1z" /><path fill-rule="evenodd" fill="#79AA2D" d="M256 679l-3-12 .8-8c0-.8-1-2-.6-2.4 3.4-6.5.4-14 2.7-20.5 2-6 4-12 6.6-18 4-9.4 2.7-18-2.5-26.4-5.4-9-3.4-20.2 4.6-26.3 2-1.6 2.8-3 2-5.3-1.7-4.5.5-8 3.4-11h1l2 11c-3 .6-4.5 2.3-5 5.2-.3 1.2-1 2.4-1.8 3.2C257 577 260 591 272 595c1 6 2.3 11.8 3 17.8 1 9.2 1.7 18.5 2 27.7.2 14-.2 28-.2 42l-15-2.7-5.8-.7z" /><path fill-rule="evenodd" fill="#578830" d="M273 560l-2-11c.3-2 .8-4 1-6v-7c5 2 4.5 7.3 8.3 10 .3-1.3.7-2.3.7-3.3v-19c.3-20.7.5-41.5 1-62.2.4-11.8 1.3-23.5 2-35.2l1-16.3 1-4 10 1-2 20v1.6l-1 65c0 3.2.7 6.3 1 9.4-.2 2.5-.2 5-.7 7.4-1.7 7.8-3.5 15.7-5.4 23.5-1.3 5-1.7 10.5-4.3 14.5-3 4.6-2.4 9-2.7 13.5 0 1.5 0 3-.2 4.5-2 0-3.5-.3-5.4-.4 0 1.6-.3 2.8-.4 4l-4.6.2c-2-1-1.2-2 .2-3 4-2.5 4-2.5 2.4-7.2z" /><path fill-rule="evenodd" fill="#B2C92A" d="M317 565v6c-2-1-4-1.7-5.5-3-4.8-4.3-10.3-6.5-16.6-7 1-7 2.3-14 3.6-21.2 1-6.3 2.3-12.5 3.4-18.8l1.5-6.6c1-3.5 2.3-7 3.5-10.4 2 6.3 7.4 9.6 12.2 13.4.6.6 1.8.4 2.8.6-1 8-1.8 16.3-2.7 24.5l-1.3 14.7-1 7.8z" /><path fill-rule="evenodd" fill="#8CAA28" d="M296 323l2.5-15 .5-4c2-8.5 3.8-17 6-25.4 3.2-13 6.4-26 10-38.8 2.7-10 6-20 9-29.8 2.3.6 5 .8 6.8 2 2.4 1.6 4.6 2 7.2 1-4.2 14-8.7 28-12.5 42-5 19-9.6 38-14.3 57-.3 1.3-.2 2.7-.2 4l-1 1v2l-10.2 3-3.8 1z" /><path fill-rule="evenodd" fill="#96B024" d="M338 213c-2.6 1-4.8.6-7.2-1-2-1.2-4.5-1.4-6.8-2l4-12c9-22.4 17.5-45 29-66.5 5.5-10.7 12-21 18-31.4.5-.7 1.3-1.3 2-2l7 2c-3.6 7-7.6 13.6-10.7 20.6-5.7 12.7-11 25.6-16.3 38.4l-12 32.5c-2.5 7-4.7 14.3-7 21.5z" /><path fill-rule="evenodd" fill="#6F8B2E" d="M310 317l1-1-1 1z" /><path fill-rule="evenodd" fill="#527E2F" d="M302 521c-1 6.3-2.3 12.5-3.4 18.8L295 561l-1 4-1 1c-1 0-2-.6-3-.4-4.6 1-9 2.3-10.2 7.5l-4.8-3c0-1.2.3-2.4.4-4l5.4.5c0-1.5 0-3 .2-4.5.3-4.6-.4-9 2.7-13.5 2.6-4 3-9.6 4.2-14.6l5.3-23.6c.5-2.4.5-5 .7-7.4 1 1.3 2.4 2.5 2.8 4 1 3.6 1.3 7.3 2.3 11 .5 1 2 2 3 3z" /><path fill-rule="evenodd" fill="#619432" d="M296 407l-10-1 2-24 11 1-1 11-2 13z" /><path fill-rule="evenodd" fill="#A2BE2A" d="M384 100l-7-2 3-6c5-6 9.8-12 15-17.7 11.8-13.8 25.6-24.6 44-28 1.7-.4 3.4-.3 5-.3-6.2 2.6-12.3 5-18.4 7.8-1.5.6-2.6 2-3.8 3-2.4 1.8-5 3.2-7.2 5-11 10.2-20.4 21.7-28 34.7-.7 1.3-1.7 2.3-2.6 3.5z" /><path fill-rule="evenodd" fill="#7EA32E" d="M109 708.4c-1 0-2-.3-3-.5-.8-13-1.4-26-2-39 0-2-1.2-2.8-3-3-3.3-.4-5.6-2.3-6.6-5.4-.6-1.6-1-3.4 1.7-3.6.2 3.3 1.7 5.7 5 6.5 3.3 1 5-1.6 6.7-4 0 2.2 0 4.3.4 6.3.3.8 1.3 1.5 2 2.2-.3 2-1 3.8-1 5.7v34.7z" /><path fill-rule="evenodd" fill="#F1F2EF" d="M107.7 659.6c-1.7 2.3-3.4 4.8-6.7 4-3.3-1-4.8-3.3-5-6.6 2.8-5.2 3.6-5.6 8.7-4.4l1.5.8 1.6 2.3v4z" /><path fill-rule="evenodd" fill="#8EB52A" d="M314 633v46c-.7 0-1.3 0-1.8.2l-15-.3c-1.5-10-1-20.2-3.6-30l-6.5 2-1-16.8-.8-9.3c1.8 0 3.5 0 5.4.2l2.8 13c7.4-.8 14-3.2 20.6-5.2z" /><path fill-rule="evenodd" fill="#A0C224" d="M314 633c-6.6 2-13.2 4.4-20.6 5.2-1-4.5-2-8.6-2.8-13-2 0-3.6-.2-5.4-.3h-.2l4.2-31c3.2 0 6.4-.3 9.5 0 7 1 13-5.4 14.2-10 1.5-6.2-2-13.7-8-16.4-3.4-1.4-7.3-1.8-11-2.6l1-4c6.2.5 11.7 2.7 16.5 7 1.6 1.3 3.6 2 5.5 3l-2 38c-.2 3.4-.7 6.7-1 10v14z" /><path fill="none" d="M111.5 656.3l3-4.5c4.3-.5 7 .8 8 3.8 1 2.8-.3 5-2.4 6.5-3 2.5-5.4.3-8-1.5 0-.5-.2-1-.4-1.5v-2.7z" /><path fill-rule="evenodd" fill="#7EA32E" d="M105 592v-10l10 1h1v8l-11 1z" /><path fill-rule="evenodd" fill="#619432" d="M285.2 625l.8 9.2 1 16.8c0 2-.7 4.6.2 6.3 2.7 5 1.4 10.2 1.8 15.4.2 2 .7 4 1 6-3 .3-3.3 2.2-2.5 4.7-3.7 2-7.2-.4-10.7-1 0-14 .4-28 0-42 0-9-1-18.4-2-27.6-.5-6-1.8-12-2.8-17.8l-1-7h5l1.7 2c.7 1 2 1.8 2.2 2.8l3 25.8c.3 2.2 1.3 4.3 2 6.4h.2z" /><path fill-rule="evenodd" fill="#82837E" d="M287.5 683.4c-.8-2.5-.6-4.4 2.6-4.6h7l15.2.4c-4.3 4-10 2.7-15 3.6-3 .6-6.4.4-9.7.6z" /><path fill-rule="evenodd" fill="#527E2F" d="M106 617l12-2c.8 5.2-1 10-2.4 15-1 4-1.8 8-2.6 12-.6 2.8-1 5.8-5 5-.4-1-1-2-1-3.2l-1-26.8zM107.8 655.7l-1.6-2.3c.6-.2 1-.4 1.7-.5l-.2 2.7z" /><path fill-rule="evenodd" fill="#619432" d="M105 592l11-1c.3 2.8.8 5.6.8 8.4 0 .8-1.3 2-2.2 2.2-2.8.7-5.7 1-8.6 1.4l-1-11z" /><path fill-rule="evenodd" fill="#D2D3CF" d="M84.8 710h-1c-4.2-.6-7-2.6-6.6-5.3.5-3.7 3.7-3.6 6.5-3.8l1 9z" /><path fill-rule="evenodd" fill="#7EA32E" d="M271 588l1 7c-12-4-15-18-5.8-26.6.8-.8 1.5-2 1.7-3.2.5-3 2-4.6 5-5.2 1.6 4.7 1.6 4.7-2.4 7.3-1.4 1-2 1.8-.2 3-3.8 2-6.8 4.8-6.4 9.7.3 4.4 3 6.7 7 8z" /><path fill="none" d="M271 588c-4-1.3-6.7-3.6-7-8-.4-5 2.6-7.6 6.4-9.8h4.6l4.8 3c2 3 2.5 6.3 1.4 9.8l-5.2 5h-5z" /><path fill-rule="evenodd" fill="#8EB52A" d="M294 565c3.7.8 7.6 1.2 11 2.6 6 2.7 9.5 10.2 8 16.3-1.4 4.6-7.2 11-14.3 10-3-.3-6.3 0-9.5 0 0-.3 0-.7-.2-1l1-7c1 .6 1.7 1.3 2.6 1.7 3.6 1.8 7.3 1.3 10.2-1.2 2.8-2.6 3.7-6.5 2.3-10-1.3-3.6-4.4-5.6-8.5-5.5-1 0-2.3.2-3.4.4V566l1-1z" /><path fill-rule="evenodd" fill="#50782E" d="M293 566v5.4c-6 4.7-6.6 8-3 14.7l-1 7c-6.8 0-6.8 0-7-6.8 0-1-.5-2-.8-3.2 1-3.5.7-6.8-1.4-10 1.3-5 5.6-6.5 10-7.4 1-.2 2.2.3 3.3.5z" /><path fill-rule="evenodd" fill="#8CAA28" d="M295 679c-1.7-.2-3.3-.2-5-.2-.2-2-.8-4-1-6-.4-5.3 1-10.5-1.8-15.5-1-1.7 0-4.2 0-6.3l6.4-2c2.6 9.8 2 20 3.5 30h-2z" /><path fill-rule="evenodd" fill="#527E2F" d="M281.3 583c.2 1 .6 2.2.7 3.2.2 6.7.2 6.7 7 6.8 0 .3 0 .7.2 1l-4.2 31c-.7-2-1.7-4.2-2-6.4l-3-25.8c-.2-1-1.6-1.8-2.3-2.8-.6-.7-1-1.4-1.7-2l5.3-5z" /><path fill-rule="evenodd" fill="#619432" d="M295 679h1-1z" /><path fill="none" d="M290 586c-3.6-6.5-3-10 3-14.6 1.2-.2 2.4-.4 3.5-.4 4 0 7.2 2 8.6 5.5 1.5 3.5.6 7.4-2.2 10-3 2.5-6.6 3-10.2 1.2-1-.4-1.7-1-2.5-1.6z" /></g></symbol><symbol viewBox="0 0 19.472 15.829" id="icon--twitter"><path d="M17.5 3.9v.5c0 5.3-4 11.4-11.4 11.4-2.3 0-4.4-.7-6.1-1.8.3 0 .6.1.9.1 1.9 0 3.6-.6 5-1.7-1.8 0-3.2-1.2-3.7-2.8.2 0 .5.1.8.1.4 0 .7-.1 1.1-.1C2.2 9.2.8 7.5.8 5.6v-.1c.5.3 1.1.5 1.8.5C1.5 5.3.8 4.1.8 2.7c0-.7.2-1.4.5-2 2 2.4 5 4 8.3 4.2-.1-.3-.1-.6-.1-.9 0-2.2 1.8-4 4-4 1.2 0 2.2.5 2.9 1.3.9-.2 1.8-.5 2.5-1-.3.9-.9 1.7-1.8 2.2.8-.1 1.6-.3 2.3-.6-.5.8-1.1 1.5-1.9 2z" /></symbol><symbol viewBox="0 0 540 122.523" id="icon--wordpress"><path fill="#00749A" d="M313.19 48.227h-21.257v2.255c6.649 0 7.718 1.425 7.718 9.857V75.54c0 8.431-1.068 9.975-7.718 9.975-5.105-.712-8.55-3.444-13.3-8.669l-5.462-5.937c7.362-1.308 11.28-5.938 11.28-11.164 0-6.53-5.58-11.518-16.031-11.518h-20.9v2.255c6.649 0 7.718 1.425 7.718 9.857V75.54c0 8.431-1.069 9.975-7.718 9.975v2.256h23.631v-2.256c-6.649 0-7.718-1.544-7.718-9.975v-4.274h2.018l13.182 16.505h34.557c16.981 0 24.344-9.024 24.344-19.832 0-10.806-7.362-19.712-24.344-19.712zm-49.756 19.355V51.79h4.868c5.343 0 7.719 3.681 7.719 7.956 0 4.157-2.376 7.837-7.719 7.837h-4.868zm50.113 16.508h-.832c-4.274 0-4.868-1.068-4.868-6.531V51.79h5.7c12.35 0 14.605 9.024 14.605 16.031 0 7.243-2.256 16.269-14.605 16.269zM181.378 71.978l8.194-24.227c2.376-7.006 1.307-9.024-6.293-9.024v-2.376h22.325v2.376c-7.481 0-9.262 1.781-12.231 10.45L179.834 89.79h-1.543l-12.114-37.17-12.349 37.17h-1.544l-13.181-40.613c-2.85-8.669-4.75-10.45-11.638-10.45v-2.376h26.363v2.376c-7.007 0-8.908 1.662-6.413 9.024l7.956 24.227 11.994-35.627h2.257l11.756 35.627zm40.374 17.336c-13.062 0-23.75-9.618-23.75-21.376 0-11.637 10.689-21.257 23.75-21.257 13.063 0 23.75 9.62 23.75 21.257 0 11.758-10.687 21.376-23.75 21.376zm0-38.949c-10.924 0-14.725 9.855-14.725 17.574 0 7.839 3.801 17.576 14.725 17.576 11.045 0 14.845-9.737 14.845-17.576 0-7.719-3.8-17.574-14.845-17.574z" /><path fill="#464342" d="M366.864 85.396v2.375H339.67v-2.375c7.957 0 9.382-2.018 9.382-13.895V52.502c0-11.877-1.425-13.776-9.382-13.776V36.35h24.581c12.231 0 19.002 6.294 19.002 14.727 0 8.194-6.771 14.606-19.002 14.606h-6.769V71.5c0 11.878 1.425 13.896 9.382 13.896zm-2.613-44.771h-6.769v20.664h6.769c6.651 0 9.738-4.631 9.738-10.212 0-5.7-3.087-10.452-9.738-10.452zm100.582 35.984l-.594 2.137c-1.068 3.919-2.376 5.344-10.807 5.344h-1.663c-6.174 0-7.243-1.425-7.243-9.856v-5.462c9.263 0 9.976.83 9.976 7.006h2.256V58.083h-2.256c0 6.175-.713 7.006-9.976 7.006V51.79h6.53c8.433 0 9.738 1.425 10.807 5.344l.595 2.255h1.899l-.83-11.162h-34.914v2.255c6.649 0 7.719 1.425 7.719 9.857V75.54c0 7.713-.908 9.656-6.151 9.933-4.983-.761-8.404-3.479-13.085-8.627l-5.463-5.937c7.363-1.308 11.282-5.938 11.282-11.164 0-6.53-5.581-11.518-16.031-11.518h-20.9v2.255c6.649 0 7.718 1.425 7.718 9.857V75.54c0 8.431-1.068 9.975-7.718 9.975v2.256h23.632v-2.256c-6.649 0-7.719-1.544-7.719-9.975v-4.274h2.019l13.181 16.505h48.806l.713-11.161h-1.783zm-62.937-9.027V51.79h4.868c5.344 0 7.72 3.681 7.72 7.956 0 4.157-2.376 7.837-7.72 7.837h-4.868zm87.043 21.732c-4.75 0-8.907-2.493-10.688-4.038-.594.595-1.662 2.376-1.899 4.038h-2.257V72.928h2.375c.951 7.837 6.412 12.468 13.419 12.468 3.8 0 6.888-2.137 6.888-5.699 0-3.087-2.731-5.463-7.6-7.719l-6.769-3.206c-4.751-2.258-8.313-6.177-8.313-11.401 0-5.7 5.344-10.568 12.707-10.568 3.919 0 7.243 1.425 9.263 3.087.593-.475 1.187-1.782 1.544-3.208h2.256v14.014h-2.494c-.832-5.582-3.919-10.213-10.212-10.213-3.325 0-6.414 1.9-6.414 4.87 0 3.087 2.494 4.749 8.195 7.362l6.53 3.206c5.701 2.731 7.956 7.127 7.956 10.689 0 7.48-6.531 12.704-14.487 12.704zm36.575 0c-4.751 0-8.908-2.493-10.688-4.038-.594.595-1.662 2.376-1.899 4.038h-2.257V72.928h2.375c.95 7.837 6.412 12.468 13.419 12.468 3.8 0 6.888-2.137 6.888-5.699 0-3.087-2.731-5.463-7.601-7.719l-6.769-3.206c-4.75-2.258-8.313-6.177-8.313-11.401 0-5.7 5.344-10.568 12.707-10.568 3.919 0 7.243 1.425 9.263 3.087.593-.475 1.187-1.782 1.542-3.208h2.257v14.014h-2.493c-.832-5.582-3.919-10.213-10.212-10.213-3.325 0-6.414 1.9-6.414 4.87 0 3.087 2.494 4.749 8.195 7.362l6.53 3.206C537.745 68.652 540 73.048 540 76.61c0 7.48-6.531 12.704-14.486 12.704z" /><g fill="#464342"><path d="M8.708 61.26c0 20.802 12.089 38.779 29.619 47.298L13.258 39.872a52.354 52.354 0 00-4.55 21.388zm88.032-2.652c0-6.495-2.333-10.993-4.334-14.494-2.664-4.329-5.161-7.995-5.161-12.324 0-4.831 3.664-9.328 8.825-9.328.233 0 .454.029.681.042-9.35-8.566-21.807-13.796-35.489-13.796-18.36 0-34.513 9.42-43.91 23.688 1.233.037 2.395.063 3.382.063 5.497 0 14.006-.667 14.006-.667 2.833-.167 3.167 3.994.337 4.329 0 0-2.847.335-6.015.501L48.2 93.547l11.501-34.493-8.188-22.434c-2.83-.166-5.511-.501-5.511-.501-2.832-.166-2.5-4.496.332-4.329 0 0 8.679.667 13.843.667 5.496 0 14.006-.667 14.006-.667 2.835-.167 3.168 3.994.337 4.329 0 0-2.853.335-6.015.501l18.992 56.494 5.242-17.517c2.272-7.269 4.001-12.49 4.001-16.989z" /><path d="M62.184 65.857l-15.768 45.819a52.552 52.552 0 0014.846 2.141c6.12 0 11.989-1.058 17.452-2.979a4.615 4.615 0 01-.374-.724L62.184 65.857zm45.192-29.811c.226 1.674.354 3.471.354 5.404 0 5.333-.996 11.328-3.996 18.824l-16.053 46.413c15.624-9.111 26.133-26.038 26.133-45.426.001-9.137-2.333-17.729-6.438-25.215z" /><path d="M61.262 0C27.483 0 0 27.481 0 61.26c0 33.783 27.483 61.263 61.262 61.263 33.778 0 61.265-27.48 61.265-61.263C122.526 27.481 95.04 0 61.262 0zm0 119.715c-32.23 0-58.453-26.223-58.453-58.455 0-32.23 26.222-58.451 58.453-58.451 32.229 0 58.45 26.221 58.45 58.451 0 32.232-26.221 58.455-58.45 58.455z" /></g></symbol></defs></svg>