<svg xmlns="http://www.w3.org/2000/svg" xmlns:xlink="http://www.w3.org/1999/xlink"><defs><symbol viewBox="0 0 652 652" id="icon--craft"><path d="M322.6 308.5H348l3-16.2h-25.4l4.3-23.7h-.1l-19.3 15.7-1.4 7.9h-20l5.8-31.9c1.4-12 19-8.4 21.6-7.7l2.8-15.4c-31.7-12.7-40.9 23.1-40.9 23.1l-5.8 31.9h-.1l-19.8 16.2h17l-18.7 102h16.5l18.6-101.9h20l-7.3 39.9c-4.6 29 23.3 25.8 32.2 24l2.8-15.2c-21.3 5-18.5-8.8-18.5-8.8l7.3-39.9zm-98.1 40.9c-18.4 19.4-30.2 6.7-30.2 6.7-8-8 .8-16.2.8-16.2 12.2-11.4 30.8 1.1 30.8 1.1l-1.4 8.4zm2.7-20.4s-24.3-12.9-41.3 1.5c0 0-10 6.9-10 20.6 0 13.7 12.2 21.1 12.2 21.1s18.3 10 32.6-6l-1.6 7.4h16l10.1-49.3c7.6-48.7-48.6-31.4-48.6-31.4l-3.1 17.5c41.4-18.6 34.4 13.8 34.4 13.8l-.7 4.8zM186 294.9c-13.5.1-25.7 7.6-25.7 7.6l1.6-7.3h-16.1l-14.7 80h16.5l10-52.7c7.4-14.9 25.6-10.2 25.6-10.2l2.8-17.4zm-64.7-35c.8.6 1.6 1.3 2.3 2l12-9.7.4-.5c-1.9-1.9-3.8-3.7-6-5.4-27.6-21.4-69.2-12.4-93 20-23.8 32.4-20.8 76 6.8 97.4 22.5 17.4 54.4 14.7 78.3-4.6l-11.4-9.2c-17.7 11.7-39.7 12.5-55.6.2-21.2-16.4-23.5-49.9-5.2-74.8 18.2-25 50.2-31.9 71.4-15.4zM431 367.6c-3.6 2.3-7.5 4.1-11.5 5.5-4.2 1.4-8.7 2.1-13.6 2.1-5.8 0-11.1-1-16-3.1-4.7-1.9-9-4.8-12.6-8.5-3.5-3.7-6.3-8-8.3-12.7-2-4.9-3-10.1-3-15.7s1-10.8 2.9-15.7c1.9-4.8 4.7-9.2 8.3-12.9 3.6-3.7 7.9-6.6 12.7-8.7 4.9-2.1 10.2-3.2 16-3.2 4.9 0 9.4.7 13.6 2.1 4.2 1.4 8 3.3 11.6 5.5l-3.2 4.7c-3.1-2-6.5-3.6-10.1-4.9-3.6-1.3-7.5-1.9-11.9-1.9-5 0-9.6.9-13.7 2.7-4 1.7-7.6 4.2-10.6 7.3-3 3.1-5.3 6.8-6.9 10.9-1.6 4.3-2.5 9-2.4 13.6 0 4.8.8 9.4 2.4 13.7 1.5 4.1 3.9 7.9 6.9 11.2 3 3.2 6.6 5.7 10.6 7.5 4.1 1.8 8.7 2.7 13.7 2.7 4.4 0 8.4-.7 11.9-1.9 3.6-1.3 6.9-3 10.1-4.9l3.1 4.6zm119.2 7.6v-53c0-14.4-5.9-21.6-17.7-21.6-5.4 0-10.6 1.7-15.5 4.9-4.9 3.3-9.3 7.7-13.2 13.1v56.6H498v-53c0-14.4-5.9-21.6-17.7-21.6-5.5 0-10.7 1.7-15.4 4.9-4.9 3.4-9.4 7.5-13.3 12.2v57.5H446v-78.8h5.6v14.8c1.7-2 3.6-4 5.8-6 2.2-2 4.5-3.7 6.9-5.2 2.5-1.5 5.1-2.8 8-3.7 2.9-1 6-1.4 9-1.4 5 0 9.5 1.5 13.3 4.4 3.8 2.9 6.4 7.4 7.8 13.5 3.6-4.8 8.1-9 13.5-12.5s11.2-5.3 17.5-5.3c2.9 0 5.8.5 8.6 1.5 2.7 1 5.1 2.6 7.2 4.8 2.1 2.2 3.8 5 5 8.4 1.2 3.4 1.8 7.4 1.8 12.1v53.5h-5.8v-.1zm70.8-21.4c0 2.9-.5 5.6-1.7 8.2-1.1 2.6-2.7 4.9-4.8 6.8-2.2 2-4.7 3.6-7.5 4.7-2.9 1.2-6.2 1.8-9.9 1.8-4.9 0-9.5-.8-13.8-2.5-4.4-1.7-8.5-3.9-12.4-6.6l2.8-4.5c3.5 2.4 7.2 4.5 11.1 6.1 3.8 1.6 7.9 2.4 12.4 2.4 5.5 0 10-1.5 13.3-4.5 3.3-3 5-6.6 5-11 0-3.7-1-6.7-3-8.9s-4.5-4-7.5-5.6c-3-1.6-6.2-3-9.7-4.2-3.4-1.2-6.6-2.7-9.7-4.5-2.9-1.6-5.4-3.9-7.5-6.5-2-2.6-3-6.1-3-10.4 0-2.5.5-4.9 1.6-7.3 1.1-2.4 2.6-4.6 4.5-6.3 2.1-1.9 4.5-3.5 7.2-4.5 2.8-1.1 6.1-1.7 9.8-1.7 4.1 0 7.9.6 11.5 1.9 3.6 1.2 7.2 3.1 10.6 5.6l-2.8 4.7c-3.3-2.5-6.5-4.3-9.5-5.4-3.2-1.1-6.5-1.7-9.9-1.7-5.9 0-10.3 1.5-13.2 4.4-2.9 2.9-4.3 6.2-4.3 9.8 0 3.7 1 6.7 3 8.9s4.5 4 7.5 5.5 6.2 2.9 9.7 4.1c3.4 1.2 6.7 2.7 9.7 4.4 3 1.7 5.5 3.8 7.5 6.4 2 2.5 3 6 3 10.4z" fill="#e5422b" /></symbol><symbol viewBox="0 0 342 480" id="icon--css3"><path d="M68.37.96c21-.26 42-.08 63-.09.05 6.57.15 13.14-.09 19.71-14.55-.1-29.09 0-43.63.09-.1 9.54-.29 19.08-.2 28.62 14.6.09 29.21.23 43.81.17.17 5.4.11 10.82-.05 16.23-20.94-.14-41.88-.08-62.82-.06.05-21.56.09-43.11-.02-64.67zm70.49-.07c21.26-.04 42.52-.17 63.79.07-.08 6.21-.02 12.41-.02 18.62-15.47-.05-30.95.02-46.42.2.02 2.44.02 4.88 0 7.32 15.45.25 30.89.28 46.33.37.06 12.73.03 25.45.11 38.17-21.27-.04-42.54-.02-63.81.08-.11-5.14-.12-10.27.03-15.41 14.74.04 29.49.06 44.23-.06.09-3.31.13-6.63.12-9.94-14.81 0-29.63.05-44.44-.05 0-13.12 0-26.25.08-39.37zm70.91.11h63.67c.09 6.24.18 12.48-.02 18.71-15.54-.01-31.08.08-46.62.11.04 2.55.1 5.1.23 7.65 15.45-.07 30.9.12 46.34.28.14 12.67.24 25.34.06 38.01-21.27-.06-42.54-.06-63.81.04-.13-5.12-.17-10.26.05-15.38 14.71.11 29.43.09 44.15-.05.04-3.32.11-6.64.08-9.95-14.77.14-29.55.06-44.33.01 0-13.14.1-26.29.2-39.43z" /><path fill="#0170ba" d="M0 92.46c113.92-.01 227.83-.02 341.75 0-6.27 70.85-12.44 141.7-18.97 212.53-3.88 45.27-7.88 90.54-12.1 135.78-24.31 6.44-48.38 13.78-72.68 20.25-22.32 6.55-44.82 12.48-67.15 18.98h-.66c-21.25-6.32-42.71-11.88-63.96-18.2-25.08-6.76-49.94-14.3-75.03-21.03-3.27-33.91-6.22-67.84-9.13-101.77-5.49-62.69-11.46-125.34-16.74-188.04C3.5 132.09 2.19 113.16 0 94.33v-1.87m171.41 27.95c-.24 13.61.18 27.23-.24 40.83-39.08-.14-78.17-.03-117.25.01.67 13.21 2.44 26.33 4.26 39.43 36.36 1.35 72.77-.05 109.13 1.04-31.81 14.27-64.01 27.71-95.96 41.68-2.74 1.22-5.67 2.14-8.12 3.92.27 14.51 2.61 28.94 3.64 43.42 19.38-.07 38.75-.38 58.13-.41 15.53-.08 31.07.23 46.6-.11-.74 23.86.23 47.75-.5 71.61-10.45-1.55-20.77-3.88-31.18-5.73-8.21-1.79-16.62-2.72-24.71-5.07-1.15-11.45-1.95-22.94-2.97-34.4-2.34-.72-4.82-.65-7.24-.69-11.74.07-23.49-.04-35.24.14 1.15 22.03 3.13 44.03 6.5 65.85 11.58 3.02 23.18 5.98 34.74 9.13 17.71 4.82 35.64 8.83 53.38 13.57 2.11.45 4.24 1.23 6.43 1.05 1.18 14.49.27 29.07.49 43.6 4.09-.66 8.11-1.67 12.06-2.89 33.58-9.12 67.12-18.41 100.68-27.62 1.67-13.2 2.45-26.49 3.77-39.72 3.49-40.22 7.01-80.44 10.67-120.65 4.29-46 8-92.05 12.32-138.05-46.47.04-92.93-.09-139.39.06z" /><g fill="#29a9df"><path d="M171.41 120.41c46.46-.15 92.92-.02 139.39-.06-4.32 46-8.03 92.05-12.32 138.05-3.66 40.21-7.18 80.43-10.67 120.65-1.32 13.23-2.1 26.52-3.77 39.72-33.56 9.21-67.1 18.5-100.68 27.62-3.95 1.22-7.97 2.23-12.06 2.89-.22-14.53.69-29.11-.49-43.6l1.21-.24c31.23-7.84 62.25-16.47 93.41-24.59 3.94-44.2 8.31-88.38 11.08-132.67-26.5.14-53.01.06-79.51.17-3.86.02-7.72 0-11.56-.28 14.26-7.34 29.26-13.16 43.9-19.71 14.05-6.37 28.27-12.34 42.37-18.59 2.72-1.25 5.62-2.29 8.01-4.15.94-3.45.89-7.06 1.26-10.59.81-11.2 2.25-22.34 2.79-33.55-37.53-.3-75.06-.04-112.6-.24.42-13.6 0-27.22.24-40.83z" /><path d="M171.6 290.22c18.12-.31 36.25.18 54.38.06-1.01 18.53-2.55 37.03-3.51 55.56-11.11 3.63-22.39 6.7-33.59 10.06-5.97 1.82-12.1 3.26-17.78 5.93.73-23.86-.24-47.75.5-71.61z" /></g><path d="M53.92 161.25c39.08-.04 78.17-.15 117.25-.01.51 43-.13 86 .43 128.98-15.53.34-31.07.03-46.6.11-19.38.03-38.75.34-58.13.41-1.03-14.48-3.37-28.91-3.64-43.42 2.45-1.78 5.38-2.7 8.12-3.92 31.95-13.97 64.15-27.41 95.96-41.68-36.36-1.09-72.77.31-109.13-1.04-1.82-13.1-3.59-26.22-4.26-39.43zm15.84 154.83c11.75-.18 23.5-.07 35.24-.14 2.42.04 4.9-.03 7.24.69 1.02 11.46 1.82 22.95 2.97 34.4 8.09 2.35 16.5 3.28 24.71 5.07 10.41 1.85 20.73 4.18 31.18 5.73 1 14.52-.75 29.14.92 43.61l-1.21.24c-2.19.18-4.32-.6-6.43-1.05-17.74-4.74-35.67-8.75-53.38-13.57-11.56-3.15-23.16-6.11-34.74-9.13-3.37-21.82-5.35-43.82-6.5-65.85z" fill="#cfcfcf" /><path fill="#fff" d="M171.17 161.24c37.54.2 75.07-.06 112.6.24-.54 11.21-1.98 22.35-2.79 33.55-.37 3.53-.32 7.14-1.26 10.59-2.39 1.86-5.29 2.9-8.01 4.15-14.1 6.25-28.32 12.22-42.37 18.59-14.64 6.55-29.64 12.37-43.9 19.71 3.84.28 7.7.3 11.56.28 26.5-.11 53.01-.03 79.51-.17-2.77 44.29-7.14 88.47-11.08 132.67-31.16 8.12-62.18 16.75-93.41 24.59-1.67-14.47.08-29.09-.92-43.61 5.68-2.67 11.81-4.11 17.78-5.93 11.2-3.36 22.48-6.43 33.59-10.06.96-18.53 2.5-37.03 3.51-55.56-18.13.12-36.26-.37-54.38-.06-.56-42.98.08-85.98-.43-128.98z" /></symbol><symbol viewBox="-221 230 56 41" id="icon--email"><path d="M-167 232c-1.9-1.9-3.3-2-26-2s-24.1.1-26 2c-1.8 1.8-2 3.3-2 18.5s.2 16.7 2 18.5c1.9 1.9 3.3 2 26 2s24.1-.1 26-2c1.8-1.8 2-3.3 2-18.5s-.2-16.7-2-18.5zm-25.9 3c20 0 21.1.1 19.8 1.7-3.4 4.7-18.5 19.3-19.9 19.3-1.5 0-21-18.8-21-20.2 0-.5 9.5-.8 21.1-.8zm-24 6.1l10.5 11.4-9.9 10.3-.6-21.7zM-193 267h-20.4l5.3-5.4 5.4-5.5 2.9 2.2c1.8 1.3 4.4 2.2 6.8 2.2s5-.9 6.8-2.2l2.9-2.2 5.4 5.5 5.3 5.4H-193zm23.7-4.5L-180 252l10.7-10.9v21.4z" /></symbol><symbol viewBox="0 0 256 108" preserveAspectRatio="xMinYMin meet" id="icon--git"><path d="M152.984 37.214c-5.597 0-9.765 2.748-9.765 9.362 0 4.983 2.747 8.443 9.463 8.443 5.693 0 9.56-3.355 9.56-8.65 0-6-3.46-9.155-9.258-9.155zm-11.19 46.701c-1.325 1.625-2.645 3.353-2.645 5.39 0 4.067 5.186 5.291 12.31 5.291 5.9 0 13.938-.414 13.938-5.9 0-3.261-3.867-3.462-8.753-3.768l-14.85-1.013zm30.113-46.394c1.828 2.34 3.764 5.597 3.764 10.276 0 11.292-8.851 17.904-21.667 17.904-3.259 0-6.209-.406-8.038-.914l-3.359 5.39 9.969.61c17.602 1.122 27.975 1.632 27.975 15.157 0 11.702-10.272 18.311-27.975 18.311-18.413 0-25.433-4.68-25.433-12.716 0-4.578 2.035-7.015 5.596-10.378-3.358-1.419-4.476-3.961-4.476-6.71 0-2.24 1.118-4.273 2.952-6.208 1.83-1.93 3.864-3.865 6.306-6.103-4.984-2.442-8.75-7.732-8.75-15.262 0-11.697 7.733-19.731 23.295-19.731 4.376 0 7.022.402 9.362 1.017h19.84v8.644l-9.361.713zm27.259-18.487c-5.8 0-9.157-3.36-9.157-9.161 0-5.793 3.356-8.95 9.157-8.95 5.9 0 9.258 3.157 9.258 8.95 0 5.801-3.357 9.161-9.258 9.161zM186.04 80.171v-8.033l5.19-.71c1.425-.205 1.627-.509 1.627-2.038V39.48c0-1.116-.304-1.832-1.325-2.134l-5.492-1.935 1.118-8.238h21.061V69.39c0 1.63.098 1.833 1.629 2.039l5.188.71v8.032H186.04zm69.227-3.944c-4.376 2.135-10.785 4.068-16.586 4.068-12.106 0-16.682-4.878-16.682-16.38V37.264c0-.61 0-1.017-.817-1.017h-7.12V27.19c8.955-1.02 12.513-5.496 13.632-16.585h9.666v14.45c0 .71 0 1.017.815 1.017h14.343v10.173H237.36v24.313c0 6.002 1.426 8.34 6.917 8.34 2.852 0 5.799-.71 8.24-1.626l2.75 8.954" fill="#2F2707" /><path d="M104.529 49.53L58.013 3.017a6.86 6.86 0 00-9.703 0l-9.659 9.66 12.253 12.252a8.145 8.145 0 018.383 1.953 8.157 8.157 0 011.936 8.434L73.03 47.125c2.857-.984 6.154-.347 8.435 1.938a8.161 8.161 0 010 11.545 8.164 8.164 0 01-13.324-8.88L57.129 40.716l-.001 28.98a8.248 8.248 0 012.159 1.544 8.164 8.164 0 010 11.547c-3.19 3.19-8.36 3.19-11.545 0a8.164 8.164 0 012.672-13.328v-29.25a8.064 8.064 0 01-2.672-1.782c-2.416-2.413-2.997-5.958-1.759-8.925l-12.078-12.08L2.011 49.314a6.863 6.863 0 000 9.706l46.516 46.514a6.862 6.862 0 009.703 0l46.299-46.297a6.866 6.866 0 000-9.707" fill="#DE4C36" /></symbol><symbol viewBox="0 0 24 24" id="icon--github"><path d="M12 0C5.374 0 0 5.373 0 12c0 5.302 3.438 9.8 8.207 11.387.599.111.793-.261.793-.577v-2.234c-3.338.726-4.033-1.416-4.033-1.416-.546-1.387-1.333-1.756-1.333-1.756-1.089-.745.083-.729.083-.729 1.205.084 1.839 1.237 1.839 1.237 1.07 1.834 2.807 1.304 3.492.997.107-.775.418-1.305.762-1.604-2.665-.305-5.467-1.334-5.467-5.931 0-1.311.469-2.381 1.236-3.221-.124-.303-.535-1.524.117-3.176 0 0 1.008-.322 3.301 1.23A11.509 11.509 0 0112 5.803c1.02.005 2.047.138 3.006.404 2.291-1.552 3.297-1.23 3.297-1.23.653 1.653.242 2.874.118 3.176.77.84 1.235 1.911 1.235 3.221 0 4.609-2.807 5.624-5.479 5.921.43.372.823 1.102.823 2.222v3.293c0 .319.192.694.801.576C20.566 21.797 24 17.3 24 12c0-6.627-5.373-12-12-12z" /></symbol><symbol viewBox="0 0 512 512" id="icon--html5"><path d="M108.4 0h23v22.8h21.2V0h23v69h-23V46h-21v23h-23.2M206 23h-20.3V0h63.7v23H229v46h-23m53.5-69h24.1l14.8 24.3L313.2 0h24.1v69h-23V34.8l-16.1 24.8-16.1-24.8V69h-22.6m89.2-69h23v46.2h32.6V69h-55.6" /><path fill="#e44d26" d="M107.6 471l-33-370.4h362.8l-33 370.2L255.7 512" /><path fill="#f16529" d="M256 480.5V131h148.3L376 447" /><path fill="#ebebeb" d="M142 176.3h114v45.4h-64.2l4.2 46.5h60v45.3H154.4m2 22.8H202l3.2 36.3 50.8 13.6v47.4l-93.2-26" /><path fill="#fff" d="M369.6 176.3H255.8v45.4h109.6m-4.1 46.5H255.8v45.4h56l-5.3 59-50.7 13.6v47.2l93-25.8" /></symbol><symbol viewBox="0 0 1776 2500" id="icon--js"><path d="M1776 489.9H0l166.5 1805.5L887.9 2500l721.4-204.6z" fill="#e6a329" /><path d="M887.9 637v1710l584.5-165.6L1614.6 637z" fill="#f1bf22" /><path d="M1352.9 858.5H454.2l-62.6 676 1.3-4.2h763.5l-24.9 286-243.6 70.1-247.2-71.2-14.8-173.1H401.5l32 345.9 454.4 129 454.6-129 62.6-678.9H594.8l10.4-226.2h562.2l8.4 129.6h226.4z" fill="#fff" /><path d="M888.1 858.5H454.2l-62.6 676 1.3-4.2h495.2v-220.5H626.4l10.4-226.2h251.3zm-261.7 783.6H401.5l32 345.7 454.4 128.8v-230l-247.2-71.4z" fill="#ebebeb" /><path d="M715.2 223.6H557.1v113.5h271.2V0H715.2zM1218.8 1.8H943.2v118c36.8 36.8 56 54.5 110.2 107.8H943.2v107.6h275.6V227.8L1108.6 120h110.2z" fill="#231f20" /></symbol><symbol viewBox="0 0 16.4 16.374" id="icon--linkedin"><path d="M3.7 16.4H.3v-11h3.4v11zM2 3.9C.9 3.9 0 3.1 0 2s.9-2 2-2 2 .9 2 2-.9 1.9-2 1.9zm14.4 12.5H13v-5.3c0-1.3 0-2.9-1.8-2.9s-2 1.4-2 2.8v5.4H5.8v-11h3.3v1.5c.4-.9 1.6-1.8 3.2-1.8 3.4 0 4.1 2.3 4.1 5.2v6.1z" /></symbol><symbol viewBox="0 0 711.201 383.598" id="icon--php"><defs></defs><g clip-path="url(#icon--php_a)" transform="matrix(1.25 0 0 -1.25 -4.4 394.299)"><path d="M11.52 162C11.52 81.677 135.307 16.561 288 16.561S564.481 81.677 564.481 162c0 80.322-123.788 145.439-276.481 145.439-152.693 0-276.48-65.117-276.48-145.439" fill="url(#icon--php_b)" /></g><g clip-path="url(#icon--php_c)" transform="matrix(1.25 0 0 -1.25 -4.4 394.299)"><path d="M288 27.36c146.729 0 265.68 60.28 265.68 134.64 0 74.36-118.951 134.641-265.68 134.641S22.32 236.36 22.32 162.001C22.32 87.64 141.271 27.358 288 27.358" fill="#777bb3" /></g><g clip-path="url(#icon--php_d)" transform="matrix(1.25 0 0 -1.25 -4.4 394.299)"><path d="M161.734 145.307c12.065 0 21.072 2.225 26.771 6.61 5.638 4.342 9.532 11.863 11.573 22.354 1.903 9.806 1.178 16.653-2.154 20.348-3.407 3.774-10.773 5.688-21.893 5.688h-19.28l-10.69-55h15.673zm-63.063-67.75a2.998 2.998 0 00-2.944 3.572l28.328 145.75a3 3 0 002.945 2.428h61.054c19.188 0 33.47-5.21 42.447-15.487 9.025-10.331 11.812-24.772 8.283-42.921-1.436-7.394-3.906-14.261-7.34-20.41-3.44-6.154-7.985-11.85-13.512-16.93-6.616-6.191-14.104-10.681-22.236-13.323-8.003-2.607-18.28-3.93-30.548-3.93h-24.722l-7.06-36.321a3 3 0 00-2.944-2.428h-31.75z" /><path d="M159.224 197.307h16.808c13.42 0 18.083-2.945 19.667-4.7 2.628-2.914 3.124-9.058 1.435-17.767-1.898-9.75-5.416-16.663-10.458-20.545-5.162-3.974-13.554-5.988-24.941-5.988H149.7l9.523 49zm28.83 35H127a6 6 0 01-5.89-4.855L92.784 81.702a6 6 0 015.889-7.144h31.75a6 6 0 015.89 4.854l6.588 33.895h22.249c12.582 0 23.174 1.372 31.479 4.077 8.54 2.775 16.399 7.48 23.354 13.984 5.752 5.292 10.49 11.232 14.08 17.657 3.59 6.427 6.17 13.594 7.668 21.302 3.715 19.104.697 34.402-8.97 45.466-9.571 10.958-24.613 16.514-44.705 16.514m-45.633-90h19.313c12.8 0 22.336 2.411 28.6 7.234 6.267 4.824 10.493 12.875 12.689 24.157 2.1 10.832 1.144 18.476-2.871 22.93-4.02 4.452-12.06 6.68-24.121 6.68h-21.754l-11.856-61m45.633 84c18.367 0 31.766-4.82 40.188-14.462 8.42-9.64 10.957-23.098 7.597-40.375-1.383-7.117-3.722-13.624-7.015-19.519-3.297-5.899-7.602-11.293-12.922-16.184-6.34-5.933-13.383-10.16-21.133-12.679-7.75-2.525-17.621-3.782-29.621-3.782h-27.196l-7.531-38.75h-31.75L127 226.307h61.055" fill="#fff" /><path d="M311.583 116.307c-.896 0-1.745.4-2.314 1.092a2.994 2.994 0 00-.631 2.48l12.531 64.489c1.192 6.133.898 10.535-.827 12.395-1.056 1.137-4.228 3.044-13.607 3.044h-22.702l-15.755-81.072a3 3 0 00-2.945-2.428h-31.5a2.998 2.998 0 00-2.945 3.572l28.328 145.75a3 3 0 002.945 2.428h31.5a3 3 0 002.945-3.572l-6.836-35.178h24.422c18.605 0 31.221-3.28 38.569-10.028 7.49-6.884 9.827-17.891 6.947-32.72l-13.18-67.824a3 3 0 00-2.945-2.428h-32z" /><path d="M293.661 271.057h-31.5a6 6 0 01-5.89-4.855l-28.328-145.75a5.998 5.998 0 015.89-7.145h31.5a6 6 0 015.89 4.855l15.283 78.645h20.23c9.362 0 11.327-2 11.406-2.086.568-.61 1.315-3.44.082-9.78l-12.53-64.49a5.998 5.998 0 015.89-7.144h32a6 6 0 015.89 4.855l13.178 67.825c3.093 15.921.447 27.864-7.86 35.5-7.929 7.281-21.209 10.82-40.6 10.82h-20.784l6.143 31.605a6.001 6.001 0 01-5.89 7.145m0-6l-7.53-38.75h28.061c17.657 0 29.836-3.082 36.54-9.238 6.702-6.16 8.71-16.14 6.031-29.938l-13.18-67.824h-32l12.531 64.488c1.426 7.336.902 12.34-1.574 15.008-2.477 2.668-7.746 4.004-15.805 4.004H281.56l-16.226-83.5h-31.5l28.328 145.75h31.5" fill="#fff" /><path d="M409.55 145.307c12.065 0 21.072 2.225 26.77 6.61 5.639 4.34 9.533 11.862 11.575 22.354 1.903 9.806 1.178 16.653-2.155 20.348-3.407 3.774-10.773 5.688-21.893 5.688h-19.281l-10.69-55h15.674zm-63.062-67.75a2.999 2.999 0 00-2.945 3.572l28.328 145.75a3.002 3.002 0 002.946 2.428h61.053c19.189 0 33.47-5.21 42.448-15.487 9.025-10.33 11.81-24.771 8.283-42.921-1.438-7.394-3.907-14.261-7.342-20.41-3.44-6.154-7.984-11.85-13.511-16.93-6.616-6.191-14.104-10.681-22.236-13.323-8.003-2.607-18.281-3.93-30.548-3.93H388.24l-7.057-36.321a3.001 3.001 0 00-2.946-2.428h-31.75z" /><path d="M407.04 197.307h16.807c13.421 0 18.083-2.945 19.667-4.7 2.63-2.914 3.125-9.058 1.435-17.766-1.898-9.75-5.417-16.664-10.458-20.546-5.162-3.974-13.554-5.988-24.94-5.988h-12.034l9.522 49zm28.83 35h-61.054a6 6 0 01-5.889-4.855L340.6 81.702a6 6 0 015.889-7.144h31.75a6 6 0 015.89 4.854l6.587 33.895h22.25c12.581 0 23.173 1.372 31.478 4.077 8.541 2.775 16.401 7.481 23.356 13.986 5.752 5.291 10.488 11.23 14.078 17.655 3.591 6.427 6.171 13.594 7.668 21.302 3.715 19.105.697 34.403-8.969 45.467-9.572 10.957-24.613 16.513-44.706 16.513m-45.632-90h19.312c12.801 0 22.336 2.411 28.601 7.234 6.267 4.824 10.492 12.875 12.688 24.157 2.102 10.832 1.145 18.476-2.87 22.93-4.02 4.452-12.06 6.68-24.122 6.68h-21.754l-11.855-61m45.632 84c18.367 0 31.766-4.82 40.188-14.462 8.422-9.64 10.957-23.098 7.597-40.375-1.383-7.117-3.722-13.624-7.015-19.519-3.297-5.899-7.602-11.293-12.922-16.184-6.34-5.933-13.383-10.16-21.133-12.679-7.75-2.525-17.62-3.782-29.62-3.782h-27.197l-7.53-38.75h-31.75l28.328 145.75h61.054" fill="#fff" /></g></symbol><clipPath id="icon--php_a"><path d="M11.52 162C11.52 81.677 135.307 16.561 288 16.561S564.481 81.677 564.481 162c0 80.322-123.788 145.439-276.481 145.439-152.693 0-276.48-65.117-276.48-145.439" /></clipPath><clipPath id="icon--php_c"><path d="M0 324h576V0H0v324z" /></clipPath><clipPath id="icon--php_d"><path d="M0 324h576V0H0v324z" /></clipPath><radialGradient cx="0" cy="0" fx="0" fy="0" gradientTransform="matrix(363.05789 0 0 -363.05789 177.52 256.307)" gradientUnits="userSpaceOnUse" id="icon--php_b" r="1" spreadMethod="pad"><stop offset="0" stop-color="#aeb2d5" /><stop offset=".3" stop-color="#aeb2d5" /><stop offset=".75" stop-color="#484c89" /><stop offset="1" stop-color="#484c89" /></radialGradient><symbol viewBox="0 0 547.8 410.6" id="icon--sass"><path fill="#CD6799" d="M471.4 236c-19.1.1-35.7 4.7-49.6 11.5-5.1-10.1-10.2-19.1-11.1-25.7-1-7.7-2.2-12.4-1-21.6 1.2-9.2 6.6-22.3 6.5-23.3s-1.2-5.7-12.2-5.8c-11-.1-20.5 2.1-21.6 5-1.1 2.9-3.2 9.5-4.6 16.3-1.9 10-22 45.7-33.5 64.4-3.7-7.3-6.9-13.7-7.6-18.8-1-7.7-2.2-12.4-1-21.6 1.2-9.2 6.6-22.3 6.5-23.3-.1-1-1.2-5.7-12.2-5.8-11-.1-20.5 2.1-21.6 5-1.1 2.9-2.3 9.7-4.6 16.3-2.3 6.6-29 66.2-36 81.6-3.6 7.9-6.7 14.2-8.9 18.5s-.1.3-.4.8c-1.9 3.7-3 5.7-3 5.7v.1c-1.5 2.7-3.1 5.2-3.9 5.2-.6 0-1.7-7.2.2-17 4-20.7 13.5-52.9 13.4-54 0-.6 1.8-6.2-6.2-9.1-7.8-2.9-10.6 1.9-11.3 1.9-.7 0-1.2 1.7-1.2 1.7s8.7-36.2-16.6-36.2c-15.8 0-37.6 17.3-48.4 32.9-6.8 3.7-21.3 11.6-36.8 20.1-5.9 3.3-12 6.6-17.7 9.7-.4-.4-.8-.9-1.2-1.3-30.6-32.7-87.2-55.8-84.8-99.7.9-16 6.4-58 108.7-109 84.2-41.5 151.2-30 162.8-4.5 16.6 36.4-35.9 104-122.9 113.8-33.2 3.7-50.6-9.1-55-13.9-4.6-5-5.3-5.3-7-4.3-2.8 1.5-1 6 0 8.6 2.6 6.8 13.3 18.8 31.4 24.7 16 5.2 54.9 8.1 102-10.1 52.7-20.4 93.9-77.1 81.8-124.6C330.7 2 250.7-13.9 175 13 130 29 81.2 54.2 46.1 87 4.4 126-2.2 159.9.5 174.1c9.7 50.4 79.2 83.2 107 107.5-1.4.8-2.7 1.5-3.8 2.1-13.9 6.9-66.9 34.6-80.1 63.9-15 33.2 2.4 57 13.9 60.2 35.7 9.9 72.4-7.9 92.1-37.3 19.7-29.4 17.3-67.6 8.2-85.1-.1-.2-.2-.4-.4-.6 3.6-2.1 7.3-4.3 10.9-6.4 7.1-4.2 14.1-8.1 20.1-11.3-3.4 9.3-5.9 20.4-7.1 36.4-1.5 18.8 6.2 43.2 16.3 52.8 4.5 4.2 9.8 4.3 13.2 4.3 11.8 0 17.1-9.8 23-21.4 7.2-14.2 13.7-30.7 13.7-30.7s-8.1 44.6 13.9 44.6c8 0 16.1-10.4 19.7-15.7v.1s.2-.3.6-1c.8-1.3 1.3-2.1 1.3-2.1v-.2c3.2-5.6 10.4-18.3 21.1-39.4 13.8-27.2 27.1-61.2 27.1-61.2s1.2 8.3 5.3 22.1c2.4 8.1 7.4 17 11.4 25.6-3.2 4.5-5.2 7-5.2 7l.1.1c-2.6 3.4-5.4 7.1-8.5 10.7-10.9 13-23.9 27.9-25.7 32.2-2.1 5.1-1.6 8.8 2.4 11.8 2.9 2.2 8.1 2.5 13.4 2.2 9.8-.7 16.7-3.1 20.1-4.6 5.3-1.9 11.5-4.8 17.3-9.1 10.7-7.9 17.2-19.2 16.6-34.1-.3-8.2-3-16.4-6.3-24.1 1-1.4 1.9-2.8 2.9-4.2 16.9-24.7 30-51.8 30-51.8s1.2 8.3 5.3 22.1c2 7 6.1 14.6 9.7 22-15.9 12.9-25.7 27.9-29.2 37.7-6.3 18.2-1.4 26.4 7.9 28.3 4.2.9 10.2-1.1 14.6-3 5.6-1.8 12.2-4.9 18.5-9.5 10.7-7.9 21-18.9 20.4-33.8-.3-6.8-2.1-13.5-4.6-20 13.5-5.6 30.9-8.7 53.1-6.1 47.6 5.6 57 35.3 55.2 47.8-1.8 12.5-11.8 19.3-15.1 21.4-3.3 2.1-4.4 2.8-4.1 4.3.4 2.2 2 2.1 4.8 1.7 3.9-.7 25-10.1 25.9-33.1 1.5-29.4-26.5-61.5-76-61.2zM104.2 359.8C88.4 377 66.4 383.5 56.9 378c-10.2-5.9-6.2-31.3 13.2-49.5 11.8-11.1 27-21.4 37.1-27.7 2.3-1.4 5.7-3.4 9.8-5.9.7-.4 1.1-.6 1.1-.6l2.4-1.5c7.1 26 .3 48.9-16.3 67zm115-78.2c-5.5 13.4-17 47.7-24 45.8-6-1.6-9.7-27.6-1.2-53.3 4.3-12.9 13.4-28.3 18.7-34.3 8.6-9.6 18.1-12.8 20.4-8.9 2.9 5.1-10.5 42.3-13.9 50.7zm94.9 45.4c-2.3 1.2-4.5 2-5.5 1.4-.7-.4 1-2 1-2s11.9-12.8 16.6-18.6c2.7-3.4 5.9-7.4 9.3-11.9v1.3c0 15.3-14.8 25.6-21.4 29.8zm73.2-16.7c-1.7-1.2-1.4-5.2 4.3-17.7 2.2-4.9 7.4-13.1 16.3-21 1 3.2 1.7 6.3 1.6 9.2-.1 19.3-13.9 26.5-22.2 29.5z" /></symbol><symbol viewBox="0 0 112 112" id="icon--tailwind"><defs><filter x="-12.5%" y="-8.9%" width="125%" height="125%" id="icon--tailwind_a"><feOffset dy="2" in="SourceAlpha" result="shadowOffsetOuter1"></feOffset><feGaussianBlur stdDeviation="2" in="shadowOffsetOuter1" result="shadowBlurOuter1"></feGaussianBlur><feColorMatrix values="0 0 0 0 0 0 0 0 0 0 0 0 0 0 0 0 0 0 0.1 0" in="shadowBlurOuter1"></feColorMatrix></filter><circle id="icon--tailwind_b" cx="48" cy="28" r="28" /></defs><g transform="translate(8 16)"><use filter="url(#icon--tailwind_a)" xlink:href="#icon--tailwind_b" /><use fill="#FFF" xlink:href="#icon--tailwind_b" /></g><path d="M38 24c1.333-5.333 4.667-8 10-8 8 0 9 6 13 7 2.667.667 5-.333 7-3-1.333 5.333-4.667 8-10 8-8 0-9-6-13-7-2.667-.667-5 .333-7 3zM28 36c1.333-5.333 4.667-8 10-8 8 0 9 6 13 7 2.667.667 5-.333 7-3-1.333 5.333-4.667 8-10 8-8 0-9-6-13-7-2.667-.667-5 .333-7 3z" fill="url(#icon--tailwind_c)" transform="translate(8 16)" /><path d="M11.445 86.352H8v-2.064h9.294v2.064H13.85v9.36h-2.405v-9.36zm10.347 8.304c-.33.373-.702.677-1.114.912-.41.235-.942.352-1.594.352-.374 0-.73-.048-1.065-.144a2.449 2.449 0 01-.883-.448 2.19 2.19 0 01-.6-.776c-.15-.315-.225-.69-.225-1.128 0-.576.128-1.045.385-1.408a2.607 2.607 0 011.01-.848 5.042 5.042 0 011.4-.432c.52-.085 1.045-.14 1.58-.16l1.073-.048v-.416c0-.512-.14-.864-.425-1.056a1.737 1.737 0 00-1-.288c-.888 0-1.395.336-1.523 1.008l-2.05-.192c.148-.875.533-1.507 1.152-1.896.62-.39 1.453-.584 2.5-.584.64 0 1.186.077 1.634.232.45.155.81.376 1.082.664.272.288.47.637.593 1.048.123.41.184.872.184 1.384v5.28h-2.115v-1.056zm-.048-2.672l-.993.048c-.47.02-.85.07-1.137.144-.288.075-.51.168-.665.28a.825.825 0 00-.312.392c-.054.15-.08.315-.08.496 0 .277.096.496.288.656.192.16.46.24.8.24.578 0 1.048-.133 1.41-.4.204-.15.37-.34.498-.568.128-.23.192-.515.192-.856v-.432zm3.986-4.624h2.243v8.352H25.73V87.36zm-.032-3.072h2.307v2.016h-2.307v-2.016zm4.194 0h2.243v11.424h-2.243V84.288zm3.25 3.072h2.434l1.17 5.536 1.602-5.472h1.955l1.522 5.472 1.17-5.536h2.34l-2.436 8.352h-2.18l-1.49-5.504-1.507 5.504h-2.147L33.14 87.36zm13.198 0h2.243v8.352H46.34V87.36zm-.032-3.072h2.307v2.016h-2.307v-2.016zm4.178 3.072h2.18v1.152c.33-.49.723-.848 1.177-1.072a3.168 3.168 0 011.418-.336c.952 0 1.657.248 2.116.744.46.496.69 1.277.69 2.344v5.52H55.82v-5.216c0-.587-.112-.987-.337-1.2-.224-.213-.523-.32-.897-.32-.288 0-.537.043-.745.128a2.073 2.073 0 00-.585.368c-.15.15-.275.328-.377.536-.1.208-.15.435-.15.68v5.024h-2.244V87.36zm15.186 7.248c-.64.907-1.506 1.36-2.596 1.36-1.175 0-2.05-.395-2.628-1.184-.576-.79-.865-1.883-.865-3.28 0-.65.083-1.245.25-1.784.164-.54.402-1.003.712-1.392.31-.39.69-.69 1.137-.904.45-.213.956-.32 1.523-.32.416 0 .83.075 1.24.224.413.15.8.437 1.163.864v-3.904h2.243v11.424h-2.178v-1.104zm-.048-3.168c0-.533-.045-.96-.136-1.28a1.77 1.77 0 00-.44-.784 1.382 1.382 0 00-.634-.376 2.679 2.679 0 00-.68-.088c-.246 0-.48.048-.698.144-.22.096-.41.245-.577.448a2.24 2.24 0 00-.393.8c-.096.33-.144.725-.144 1.184 0 .5.045.92.136 1.256.09.336.215.608.375.816.16.208.348.357.56.448.215.09.445.136.69.136.534 0 .972-.155 1.314-.464.213-.213.37-.472.472-.776.1-.304.152-.696.152-1.176v-.288zm17.538.32a5.277 5.277 0 01-.425 1.688 4.16 4.16 0 01-.945 1.344c-.4.38-.892.675-1.475.888-.582.213-1.257.32-2.026.32-.865 0-1.626-.144-2.283-.432a4.488 4.488 0 01-1.65-1.216c-.444-.523-.777-1.155-1.002-1.896-.224-.74-.336-1.56-.336-2.456 0-.928.122-1.76.367-2.496.246-.736.6-1.365 1.058-1.888a4.573 4.573 0 011.666-1.2c.653-.277 1.39-.416 2.213-.416.726 0 1.36.09 1.898.272.54.18.995.443 1.363.784.37.34.665.752.89 1.232.224.48.39 1.02.496 1.616l-2.372.304c-.118-.672-.345-1.2-.68-1.584-.338-.384-.87-.576-1.595-.576-.92 0-1.616.344-2.09 1.032-.477.688-.715 1.66-.715 2.92 0 1.27.254 2.245.762 2.928.507.683 1.188 1.024 2.043 1.024.737 0 1.28-.19 1.626-.568.346-.38.562-.92.648-1.624h2.564zm3.49.224c.052.704.28 1.216.68 1.536.4.32.99.48 1.77.48.374 0 .69-.04.946-.12.256-.08.464-.187.625-.32.16-.133.275-.29.344-.472.07-.18.104-.38.104-.592 0-.3-.11-.58-.335-.84-.225-.26-.636-.45-1.234-.568l-1.49-.272a8.84 8.84 0 01-1.554-.416 3.594 3.594 0 01-1.13-.664 2.66 2.66 0 01-.696-1c-.16-.395-.24-.864-.24-1.408 0-.544.11-1.024.328-1.44.22-.416.523-.763.913-1.04s.86-.488 1.403-.632A7.015 7.015 0 0188.881 84c.833 0 1.528.096 2.083.288.556.192 1.005.445 1.347.76.342.315.595.68.76 1.096a5.1 5.1 0 01.33 1.296l-2.26.288c-.117-.63-.344-1.083-.68-1.36-.337-.277-.847-.416-1.53-.416-.407 0-.74.035-1.002.104-.262.07-.473.16-.633.272a.935.935 0 00-.337.392c-.064.15-.096.304-.096.464 0 .427.12.747.36.96.24.213.648.38 1.225.496l1.57.304c1.24.245 2.148.643 2.725 1.192.576.55.865 1.34.865 2.376 0 .5-.094.963-.28 1.384-.188.42-.465.79-.834 1.104-.367.315-.83.56-1.385.736-.555.176-1.207.264-1.955.264-1.56 0-2.753-.333-3.58-1-.83-.667-1.275-1.672-1.34-3.016h2.42zm10.394 0c.053.704.28 1.216.68 1.536.4.32.992.48 1.77.48.375 0 .69-.04.947-.12.256-.08.464-.187.625-.32.16-.133.275-.29.344-.472.07-.18.104-.38.104-.592 0-.3-.112-.58-.336-.84-.224-.26-.636-.45-1.234-.568l-1.49-.272a8.792 8.792 0 01-1.554-.416 3.56 3.56 0 01-1.13-.664 2.663 2.663 0 01-.697-1c-.16-.395-.24-.864-.24-1.408 0-.544.11-1.024.328-1.44a2.96 2.96 0 01.913-1.04 4.3 4.3 0 011.402-.632A7.015 7.015 0 0199.273 84c.833 0 1.528.096 2.083.288.556.192 1.004.445 1.346.76.342.315.596.68.76 1.096a5.1 5.1 0 01.33 1.296l-2.26.288c-.117-.63-.344-1.083-.68-1.36-.337-.277-.847-.416-1.53-.416-.407 0-.74.035-1.002.104-.262.07-.473.16-.633.272a.935.935 0 00-.337.392c-.064.15-.096.304-.096.464 0 .427.12.747.36.96.24.213.65.38 1.226.496l1.57.304c1.24.245 2.148.643 2.725 1.192.577.55.865 1.34.865 2.376 0 .5-.093.963-.28 1.384a3.09 3.09 0 01-.834 1.104c-.368.315-.83.56-1.386.736-.555.176-1.207.264-1.954.264-1.56 0-2.754-.333-3.582-1-.828-.667-1.274-1.672-1.338-3.016h2.42z" fill="#24292E" /></symbol><linearGradient x1="0%" y1="0%" y2="100%" id="icon--tailwind_c"><stop stop-color="#2383AE" offset="0%" /><stop stop-color="#6DD7B9" offset="100%" /></linearGradient><symbol viewBox="0 0 19.472 15.829" id="icon--twitter"><path d="M17.5 3.9v.5c0 5.3-4 11.4-11.4 11.4-2.3 0-4.4-.7-6.1-1.8.3 0 .6.1.9.1 1.9 0 3.6-.6 5-1.7-1.8 0-3.2-1.2-3.7-2.8.2 0 .5.1.8.1.4 0 .7-.1 1.1-.1C2.2 9.2.8 7.5.8 5.6v-.1c.5.3 1.1.5 1.8.5C1.5 5.3.8 4.1.8 2.7c0-.7.2-1.4.5-2 2 2.4 5 4 8.3 4.2-.1-.3-.1-.6-.1-.9 0-2.2 1.8-4 4-4 1.2 0 2.2.5 2.9 1.3.9-.2 1.8-.5 2.5-1-.3.9-.9 1.7-1.8 2.2.8-.1 1.6-.3 2.3-.6-.5.8-1.1 1.5-1.9 2z" /></symbol><symbol viewBox="0 0 540 122.523" id="icon--wordpress"><path fill="#00749A" d="M313.19 48.227h-21.257v2.255c6.649 0 7.718 1.425 7.718 9.857V75.54c0 8.431-1.068 9.975-7.718 9.975-5.105-.712-8.55-3.444-13.3-8.669l-5.462-5.937c7.362-1.308 11.28-5.938 11.28-11.164 0-6.53-5.58-11.518-16.031-11.518h-20.9v2.255c6.649 0 7.718 1.425 7.718 9.857V75.54c0 8.431-1.069 9.975-7.718 9.975v2.256h23.631v-2.256c-6.649 0-7.718-1.544-7.718-9.975v-4.274h2.018l13.182 16.505h34.557c16.981 0 24.344-9.024 24.344-19.832 0-10.806-7.362-19.712-24.344-19.712zm-49.756 19.355V51.79h4.868c5.343 0 7.719 3.681 7.719 7.956 0 4.157-2.376 7.837-7.719 7.837h-4.868zm50.113 16.508h-.832c-4.274 0-4.868-1.068-4.868-6.531V51.79h5.7c12.35 0 14.605 9.024 14.605 16.031 0 7.243-2.256 16.269-14.605 16.269zM181.378 71.978l8.194-24.227c2.376-7.006 1.307-9.024-6.293-9.024v-2.376h22.325v2.376c-7.481 0-9.262 1.781-12.231 10.45L179.834 89.79h-1.543l-12.114-37.17-12.349 37.17h-1.544l-13.181-40.613c-2.85-8.669-4.75-10.45-11.638-10.45v-2.376h26.363v2.376c-7.007 0-8.908 1.662-6.413 9.024l7.956 24.227 11.994-35.627h2.257l11.756 35.627zm40.374 17.336c-13.062 0-23.75-9.618-23.75-21.376 0-11.637 10.689-21.257 23.75-21.257 13.063 0 23.75 9.62 23.75 21.257 0 11.758-10.687 21.376-23.75 21.376zm0-38.949c-10.924 0-14.725 9.855-14.725 17.574 0 7.839 3.801 17.576 14.725 17.576 11.045 0 14.845-9.737 14.845-17.576 0-7.719-3.8-17.574-14.845-17.574z" /><path fill="#464342" d="M366.864 85.396v2.375H339.67v-2.375c7.957 0 9.382-2.018 9.382-13.895V52.502c0-11.877-1.425-13.776-9.382-13.776V36.35h24.581c12.231 0 19.002 6.294 19.002 14.727 0 8.194-6.771 14.606-19.002 14.606h-6.769V71.5c0 11.878 1.425 13.896 9.382 13.896zm-2.613-44.771h-6.769v20.664h6.769c6.651 0 9.738-4.631 9.738-10.212 0-5.7-3.087-10.452-9.738-10.452zm100.582 35.984l-.594 2.137c-1.068 3.919-2.376 5.344-10.807 5.344h-1.663c-6.174 0-7.243-1.425-7.243-9.856v-5.462c9.263 0 9.976.83 9.976 7.006h2.256V58.083h-2.256c0 6.175-.713 7.006-9.976 7.006V51.79h6.53c8.433 0 9.738 1.425 10.807 5.344l.595 2.255h1.899l-.83-11.162h-34.914v2.255c6.649 0 7.719 1.425 7.719 9.857V75.54c0 7.713-.908 9.656-6.151 9.933-4.983-.761-8.404-3.479-13.085-8.627l-5.463-5.937c7.363-1.308 11.282-5.938 11.282-11.164 0-6.53-5.581-11.518-16.031-11.518h-20.9v2.255c6.649 0 7.718 1.425 7.718 9.857V75.54c0 8.431-1.068 9.975-7.718 9.975v2.256h23.632v-2.256c-6.649 0-7.719-1.544-7.719-9.975v-4.274h2.019l13.181 16.505h48.806l.713-11.161h-1.783zm-62.937-9.027V51.79h4.868c5.344 0 7.72 3.681 7.72 7.956 0 4.157-2.376 7.837-7.72 7.837h-4.868zm87.043 21.732c-4.75 0-8.907-2.493-10.688-4.038-.594.595-1.662 2.376-1.899 4.038h-2.257V72.928h2.375c.951 7.837 6.412 12.468 13.419 12.468 3.8 0 6.888-2.137 6.888-5.699 0-3.087-2.731-5.463-7.6-7.719l-6.769-3.206c-4.751-2.258-8.313-6.177-8.313-11.401 0-5.7 5.344-10.568 12.707-10.568 3.919 0 7.243 1.425 9.263 3.087.593-.475 1.187-1.782 1.544-3.208h2.256v14.014h-2.494c-.832-5.582-3.919-10.213-10.212-10.213-3.325 0-6.414 1.9-6.414 4.87 0 3.087 2.494 4.749 8.195 7.362l6.53 3.206c5.701 2.731 7.956 7.127 7.956 10.689 0 7.48-6.531 12.704-14.487 12.704zm36.575 0c-4.751 0-8.908-2.493-10.688-4.038-.594.595-1.662 2.376-1.899 4.038h-2.257V72.928h2.375c.95 7.837 6.412 12.468 13.419 12.468 3.8 0 6.888-2.137 6.888-5.699 0-3.087-2.731-5.463-7.601-7.719l-6.769-3.206c-4.75-2.258-8.313-6.177-8.313-11.401 0-5.7 5.344-10.568 12.707-10.568 3.919 0 7.243 1.425 9.263 3.087.593-.475 1.187-1.782 1.542-3.208h2.257v14.014h-2.493c-.832-5.582-3.919-10.213-10.212-10.213-3.325 0-6.414 1.9-6.414 4.87 0 3.087 2.494 4.749 8.195 7.362l6.53 3.206C537.745 68.652 540 73.048 540 76.61c0 7.48-6.531 12.704-14.486 12.704z" /><g fill="#464342"><path d="M8.708 61.26c0 20.802 12.089 38.779 29.619 47.298L13.258 39.872a52.354 52.354 0 00-4.55 21.388zm88.032-2.652c0-6.495-2.333-10.993-4.334-14.494-2.664-4.329-5.161-7.995-5.161-12.324 0-4.831 3.664-9.328 8.825-9.328.233 0 .454.029.681.042-9.35-8.566-21.807-13.796-35.489-13.796-18.36 0-34.513 9.42-43.91 23.688 1.233.037 2.395.063 3.382.063 5.497 0 14.006-.667 14.006-.667 2.833-.167 3.167 3.994.337 4.329 0 0-2.847.335-6.015.501L48.2 93.547l11.501-34.493-8.188-22.434c-2.83-.166-5.511-.501-5.511-.501-2.832-.166-2.5-4.496.332-4.329 0 0 8.679.667 13.843.667 5.496 0 14.006-.667 14.006-.667 2.835-.167 3.168 3.994.337 4.329 0 0-2.853.335-6.015.501l18.992 56.494 5.242-17.517c2.272-7.269 4.001-12.49 4.001-16.989z" /><path d="M62.184 65.857l-15.768 45.819a52.552 52.552 0 0014.846 2.141c6.12 0 11.989-1.058 17.452-2.979a4.615 4.615 0 01-.374-.724L62.184 65.857zm45.192-29.811c.226 1.674.354 3.471.354 5.404 0 5.333-.996 11.328-3.996 18.824l-16.053 46.413c15.624-9.111 26.133-26.038 26.133-45.426.001-9.137-2.333-17.729-6.438-25.215z" /><path d="M61.262 0C27.483 0 0 27.481 0 61.26c0 33.783 27.483 61.263 61.262 61.263 33.778 0 61.265-27.48 61.265-61.263C122.526 27.481 95.04 0 61.262 0zm0 119.715c-32.23 0-58.453-26.223-58.453-58.455 0-32.23 26.222-58.451 58.453-58.451 32.229 0 58.45 26.221 58.45 58.451 0 32.232-26.221 58.455-58.45 58.455z" /></g></symbol></defs></svg>