
<svg xmlns="http://www.w3.org/2000/svg" viewBox="0 0 652 652">
<path d="M322.6 308.5H348l3-16.2h-25.4l4.3-23.7h-.1l-19.3 15.7-1.4 7.9h-20l5.8-31.9c1.4-12 19-8.4 21.6-7.7l2.8-15.4c-31.7-12.7-40.9 23.1-40.9 23.1l-5.8 31.9h-.1l-19.8 16.2h17l-18.7 102h16.5l18.6-101.9h20l-7.3 39.9c-4.6 29 23.3 25.8 32.2 24l2.8-15.2c-21.3 5-18.5-8.8-18.5-8.8l7.3-39.9zm-98.1 40.9c-18.4 19.4-30.2 6.7-30.2 6.7-8-8 .8-16.2.8-16.2 12.2-11.4 30.8 1.1 30.8 1.1l-1.4 8.4zm2.7-20.4s-24.3-12.9-41.3 1.5c0 0-10 6.9-10 20.6 0 13.7 12.2 21.1 12.2 21.1s18.3 10 32.6-6l-1.6 7.4h16l10.1-49.3c7.6-48.7-48.6-31.4-48.6-31.4l-3.1 17.5c41.4-18.6 34.4 13.8 34.4 13.8l-.7 4.8zM186 294.9c-13.5.1-25.7 7.6-25.7 7.6l1.6-7.3h-16.1l-14.7 80h16.5l10-52.7c7.4-14.9 25.6-10.2 25.6-10.2l2.8-17.4zm-64.7-35c.8.6 1.6 1.3 2.3 2l12-9.7.4-.5c-1.9-1.9-3.8-3.7-6-5.4-27.6-21.4-69.2-12.4-93 20-23.8 32.4-20.8 76 6.8 97.4 22.5 17.4 54.4 14.7 78.3-4.6l-11.4-9.2c-17.7 11.7-39.7 12.5-55.6.2-21.2-16.4-23.5-49.9-5.2-74.8 18.2-25 50.2-31.9 71.4-15.4zM431 367.6c-3.6 2.3-7.5 4.1-11.5 5.5-4.2 1.4-8.7 2.1-13.6 2.1-5.8 0-11.1-1-16-3.1-4.7-1.9-9-4.8-12.6-8.5-3.5-3.7-6.3-8-8.3-12.7-2-4.9-3-10.1-3-15.7s1-10.8 2.9-15.7c1.9-4.8 4.7-9.2 8.3-12.9 3.6-3.7 7.9-6.6 12.7-8.7 4.9-2.1 10.2-3.2 16-3.2 4.9 0 9.4.7 13.6 2.1 4.2 1.4 8 3.3 11.6 5.5l-3.2 4.7c-3.1-2-6.5-3.6-10.1-4.9-3.6-1.3-7.5-1.9-11.9-1.9-5 0-9.6.9-13.7 2.7-4 1.7-7.6 4.2-10.6 7.3-3 3.1-5.3 6.8-6.9 10.9-1.6 4.3-2.5 9-2.4 13.6 0 4.8.8 9.4 2.4 13.7 1.5 4.1 3.9 7.9 6.9 11.2 3 3.2 6.6 5.7 10.6 7.5 4.1 1.8 8.7 2.7 13.7 2.7 4.4 0 8.4-.7 11.9-1.9 3.6-1.3 6.9-3 10.1-4.9l3.1 4.6zm119.2 7.6v-53c0-14.4-5.9-21.6-17.7-21.6-5.4 0-10.6 1.7-15.5 4.9-4.9 3.3-9.3 7.7-13.2 13.1v56.6H498v-53c0-14.4-5.9-21.6-17.7-21.6-5.5 0-10.7 1.7-15.4 4.9-4.9 3.4-9.4 7.5-13.3 12.2v57.5H446v-78.8h5.6v14.8c1.7-2 3.6-4 5.8-6 2.2-2 4.5-3.7 6.9-5.2 2.5-1.5 5.1-2.8 8-3.7 2.9-1 6-1.4 9-1.4 5 0 9.5 1.5 13.3 4.4 3.8 2.9 6.4 7.4 7.8 13.5 3.6-4.8 8.1-9 13.5-12.5s11.2-5.3 17.5-5.3c2.9 0 5.8.5 8.6 1.5 2.7 1 5.1 2.6 7.2 4.8 2.1 2.2 3.8 5 5 8.4 1.2 3.4 1.8 7.4 1.8 12.1v53.5h-5.8v-.1zm70.8-21.4c0 2.9-.5 5.6-1.7 8.2-1.1 2.6-2.7 4.9-4.8 6.8-2.2 2-4.7 3.6-7.5 4.7-2.9 1.2-6.2 1.8-9.9 1.8-4.9 0-9.5-.8-13.8-2.5-4.4-1.7-8.5-3.9-12.4-6.6l2.8-4.5c3.5 2.4 7.2 4.5 11.1 6.1 3.8 1.6 7.9 2.4 12.4 2.4 5.5 0 10-1.5 13.3-4.5 3.3-3 5-6.6 5-11 0-3.7-1-6.7-3-8.9s-4.5-4-7.5-5.6c-3-1.6-6.2-3-9.7-4.2-3.4-1.2-6.6-2.7-9.7-4.5-2.9-1.6-5.4-3.9-7.5-6.5-2-2.6-3-6.1-3-10.4 0-2.5.5-4.9 1.6-7.3 1.1-2.4 2.6-4.6 4.5-6.3 2.1-1.9 4.5-3.5 7.2-4.5 2.8-1.1 6.1-1.7 9.8-1.7 4.1 0 7.9.6 11.5 1.9 3.6 1.2 7.2 3.1 10.6 5.6l-2.8 4.7c-3.3-2.5-6.5-4.3-9.5-5.4-3.2-1.1-6.5-1.7-9.9-1.7-5.9 0-10.3 1.5-13.2 4.4-2.9 2.9-4.3 6.2-4.3 9.8 0 3.7 1 6.7 3 8.9s4.5 4 7.5 5.5 6.2 2.9 9.7 4.1c3.4 1.2 6.7 2.7 9.7 4.4 3 1.7 5.5 3.8 7.5 6.4 2 2.5 3 6 3 10.4z" fill="#e5422b"/>
</svg>