
<svg viewBox="91.809 117.07 328.382 369.432">
  <path fill="#1758A7" d="M91.809 117.07l30.784 333.508 133.406 35.923 133.403-35.923 30.789-333.508z"/>
  <path fill="#379AD6" d="M255.997 144.084v313.768l.301.081 107.959-29.07 24.918-284.779z"/>
  <path fill="#E8E8E7" d="M255.623 372.536l-.072.022-44.57-11.361-2.701-32.718h-41.419l5.402 63.165 83.738 24.993V372.43z"/>
  <path fill="#FBFBFA" d="M256.001 266.782v40.128h.119l49.502.055-3.177 52.454-46.325 13.051-.119.034v44.087l.119.036.033.01 83.961-24.523 10.893-125.332z"/>
  <path fill="#E5E4E2" d="M161.002 266.782l3.152 40.086.005.063 91.842.006v-40.155z"/>
  <path fill="#EEE" d="M161.008 266.782h94.76l.233-.101v-40.064z"/>
  <path fill="#FFF" d="M261.553 224.667l-5.552 2.325v39.781l97.954-42.106z"/>
  <path fill="#E7E7E6" d="M152.196 184.515l4.964 40.152h98.841v-40.152z"/>
  <path fill="#F8F8F7" d="M256.001 224.667l101.842-40.152H256.001v40.152zm.027 0h97.76l4.056-40.152-101.816 40.152z"/>
</svg>