
<svg viewBox="93.063 116.909 325.875 369.576">
  <path fill="#E44D26" d="M93.063 116.909l29.656 332.632L255.8 486.486l133.449-36.997 29.689-332.58z"/>
  <path fill="#EBEBEB" d="M256 184.903H153.702l.977 10.945 10.027 112.422H256v-40.795h-53.984l-3.729-41.774H256v-40.798zm-45.614 176.302l-2.905-32.535h-40.953l5.716 64.056 83.568 23.198.188-.053v-42.444l-.179.048-45.435-12.27z"/>
  <path fill="#F16529" d="M256 144.106v314.101l107.832-29.894 25.371-284.207z"/>
  <path fill="#FFF" d="M255.858 308.271h50.236l-4.736 52.91-45.5 12.281v42.441l83.634-23.179.613-6.893 9.588-107.402.994-10.955h-94.83v40.797h.001zm0-123.368V225.7H354.4l.817-9.171 1.859-20.682.975-10.945H255.858v.001z"/>
</svg>