<svg xmlns="http://www.w3.org/2000/svg" viewBox="0 0 500 500">
	<g fill="#FFFFFF">
		<path fill="#ffffff" d="M81.9 240.9l59.9-59.1c14.6-14.4 15.6-37 2.2-50.2-13.4-13.2-36.2-12.2-50.8 2.1l-81.7 80.4c-2.4 2.2-4.2 4.9-5.9 7.5-3.5 5-5.4 10.7-5.6 16.7v2.5c0 .7 0 1.5.1 2.4.4 6 2.1 11.9 5.6 16.9 1.6 2.6 3.5 5.1 5.9 7.5L93.3 348c14.6 14.4 37.5 15.4 50.8 2.1 13.4-13.2 12.4-35.7-2.4-50.2l-59.8-59zM499.9 238.5c-.4-6-2.1-11.9-5.6-16.7-1.6-2.6-3.5-5.1-5.9-7.5l-81.7-80.4c-14.6-14.4-37.5-15.4-50.8-2.1-13.4 13.2-12.4 35.7 2.2 50.2l59.9 59.1-59.9 59.1c-14.6 14.4-15.6 37-2.4 50.2 13.4 13.2 36.2 12.2 50.8-2.1l81.7-80.4c2.4-2.2 4.1-4.9 5.9-7.5 3.5-5 5.4-10.7 5.6-16.9 0-.7.1-1.6.1-2.4.2-1 .1-1.7.1-2.6zM287.6 96.3c-18.5-3.4-37.1 10.2-41.5 30.2L194.9 361c-4.4 20.1 7.1 39.2 25.6 42.7s37.1-10.1 41.5-30.2L313.2 139c4.4-20.1-7.1-39.2-25.6-42.7z"/>
	</g>
</svg>